<svg xmlns="http://www.w3.org/2000/svg" width="183" height="220" viewBox="0 0 183 220">
  <metadata><?xpacket begin="﻿" id="W5M0MpCehiHzreSzNTczkc9d"?>
<x:xmpmeta xmlns:x="adobe:ns:meta/" x:xmptk="Adobe XMP Core 5.6-c138 79.159824, 2016/09/14-01:09:01        ">
   <rdf:RDF xmlns:rdf="http://www.w3.org/1999/02/22-rdf-syntax-ns#">
      <rdf:Description rdf:about=""/>
   </rdf:RDF>
</x:xmpmeta>
                                                                                                    
                                                                                                    
                                                                                                    
                                                                                                    
                                                                                                    
                                                                                                    
                                                                                                    
                                                                                                    
                                                                                                    
                                                                                                    
                                                                                                    
                                                                                                    
                                                                                                    
                                                                                                    
                                                                                                    
                                                                                                    
                                                                                                    
                                                                                                    
                                                                                                    
                                                                                                    
                           
<?xpacket end="w"?></metadata>
<defs>
    <style>
      .cls-1 {
        fill-rule: evenodd;
      }
    </style>
  </defs>
  <path class="cls-1" d="M185,12.008A12.027,12.027,0,0,0,172.98,0H13.02A12.027,12.027,0,0,0,1,12.008V167.992a11.861,11.861,0,0,0,1.209,5.153A3.977,3.977,0,0,0,1,176v32a12.023,12.023,0,0,0,12.02,12H172.98A12.023,12.023,0,0,0,185,208V176a3.977,3.977,0,0,0-1.209-2.855A11.867,11.867,0,0,0,185,167.992V12.008h0ZM177,208a4.015,4.015,0,0,1-4.02,4H13.02A3.968,3.968,0,0,1,9,208V180H177v28Zm0-40.008A4.019,4.019,0,0,1,172.98,172H13.02A4.019,4.019,0,0,1,9,167.992V12.008A4.019,4.019,0,0,1,13.02,8H172.98A4.019,4.019,0,0,1,177,12.008V167.992h0ZM53,18.344L58.656,24,27.7,54.953,22.047,49.3ZM26.084,80.573l-5.656-5.656L81,14.345,86.656,20ZM93,184a12,12,0,1,0,12,12A12.013,12.013,0,0,0,93,184Zm0,16a4,4,0,1,1,4-4A4,4,0,0,1,93,200Z" transform="translate(-1)"/>
</svg>
