<svg xmlns="http://www.w3.org/2000/svg" width="60" height="60" viewBox="0 0 60 60">
  <metadata><?xpacket begin="﻿" id="W5M0MpCehiHzreSzNTczkc9d"?>
<x:xmpmeta xmlns:x="adobe:ns:meta/" x:xmptk="Adobe XMP Core 5.6-c138 79.159824, 2016/09/14-01:09:01        ">
   <rdf:RDF xmlns:rdf="http://www.w3.org/1999/02/22-rdf-syntax-ns#">
      <rdf:Description rdf:about=""/>
   </rdf:RDF>
</x:xmpmeta>
                                                                                                    
                                                                                                    
                                                                                                    
                                                                                                    
                                                                                                    
                                                                                                    
                                                                                                    
                                                                                                    
                                                                                                    
                                                                                                    
                                                                                                    
                                                                                                    
                                                                                                    
                                                                                                    
                                                                                                    
                                                                                                    
                                                                                                    
                                                                                                    
                                                                                                    
                                                                                                    
                           
<?xpacket end="w"?></metadata>
<defs>
    <style>
      .cls-1 {
        fill-rule: evenodd;
      }
    </style>
  </defs>
  <path id="Forma_1" data-name="Forma 1" class="cls-1" d="M17,49a4,4,0,1,0,4,4A4,4,0,0,0,17,49Zm0,6a2,2,0,1,1,2-2A2,2,0,0,1,17,55ZM13,5h4a1,1,0,0,0,0-2H13A1,1,0,0,0,13,5Zm7,0h1a1,1,0,0,0,0-2H20A1,1,0,0,0,20,5ZM54,47a1,1,0,0,0-2,0v1a1,1,0,0,0,2,0V47Zm0-12a1,1,0,0,0-2,0v1a1,1,0,0,0,2,0V35Zm0,8a1,1,0,0,0-2,0v1a1,1,0,0,0,2,0V43Zm0-4a1,1,0,0,0-2,0v1a1,1,0,0,0,2,0V39Zm0-8a1,1,0,0,0-2,0v1a1,1,0,0,0,2,0V31Zm0,20a1,1,0,0,0-2,0v1a1,1,0,0,0,2,0V51Zm-1,3a1,1,0,0,0-1,1v1a1,1,0,0,0,2,0V55A1,1,0,0,0,53,54ZM38.043,58H37.049a1,1,0,0,0,0,2h0.994A1,1,0,1,0,38.043,58Zm-3.974,0H33.277l0-.009a4.357,4.357,0,0,0,.324-0.6c0.023-.051.046-0.1,0.067-0.152s0.043-.089.06-0.136a0.9,0.9,0,0,0,.017-0.114A4.293,4.293,0,0,0,34,55.6V28.857a0.975,0.975,0,0,0,0-1.7V4.405A4.411,4.411,0,0,0,29.6,0H4.405A4.411,4.411,0,0,0,0,4.405V55.594A4.411,4.411,0,0,0,4.405,60H30.094a0.982,0.982,0,0,0,.422-0.1,4.364,4.364,0,0,0,1.6-.7,0.988,0.988,0,0,0,.961.8h0.994A1,1,0,0,0,34.069,58ZM2,8H32V46H2V8ZM4.405,2H29.594A2.408,2.408,0,0,1,32,4.405V6H2V4.405A2.408,2.408,0,0,1,4.405,2ZM29.6,58H4.405A2.408,2.408,0,0,1,2,55.6V48H32v7.594A2.415,2.415,0,0,1,29.6,58Zm12.423,0H41.024a1,1,0,0,0,0,2h0.994A1,1,0,0,0,42.018,58Zm3.425-29a1,1,0,0,0,0-2H44.449a1,1,0,0,0,0,2h0.994Zm-7.949,0a1,1,0,0,0,0-2H36.5a1,1,0,0,0,0,2h0.994Zm8.5,29H45a1,1,0,1,0,0,2h0.994A1,1,0,0,0,45.992,58ZM41.468,29a1,1,0,0,0,0-2H40.474a1,1,0,1,0,0,2h0.994ZM53.94,58H52.946a1,1,0,0,0,0,2H53.94A1,1,0,0,0,53.94,58ZM59,41.729a1,1,0,0,0-1,1v0.994a1,1,0,0,0,2,0V42.729A1,1,0,0,0,59,41.729Zm0,7.949a1,1,0,0,0-1,1v0.993a1,1,0,0,0,2,0V50.678A1,1,0,0,0,59,49.678ZM59,45.7a1,1,0,0,0-1,1V47.7a1,1,0,0,0,2,0V46.7A1,1,0,0,0,59,45.7Zm0-7.949a1,1,0,0,0-1,1v0.994a1,1,0,0,0,2,0V38.754A1,1,0,0,0,59,37.754Zm0.933-7.118a1,1,0,0,0-1.97.347,2.453,2.453,0,0,1,.037.422V31.8a1,1,0,1,0,2,0V31.405A4.5,4.5,0,0,0,59.933,30.636ZM49.417,29a1,1,0,0,0,0-2H48.423a1,1,0,0,0,0,2h0.994ZM59,33.78a1,1,0,0,0-1,1v0.993a1,1,0,0,0,2,0V34.78A1,1,0,0,0,59,33.78ZM53.391,29a1,1,0,0,0,0-2H52.4a1,1,0,1,0,0,2h0.994ZM49.966,58H48.972a1,1,0,0,0,0,2h0.994A1,1,0,1,0,49.966,58Zm6.822-28.683a1,1,0,1,0,1-1.734,4.367,4.367,0,0,0-1.2-.469,1,1,0,0,0-.447,1.949A2.375,2.375,0,0,1,56.788,29.317ZM59,53.651a1,1,0,0,0-1,1v0.993a0.98,0.98,0,0,0,1,.976A1.022,1.022,0,0,0,60,55.6V54.652A1,1,0,0,0,59,53.651Zm-1.892,3.813a2.37,2.37,0,0,1-.6.357,1,1,0,1,0,.759,1.85,4.432,4.432,0,0,0,1.1-.654A1,1,0,0,0,57.108,57.464Zm-5.49-36.541a0.986,0.986,0,0,0,.764,0,1.014,1.014,0,0,0,.326-0.216l6-6a1,1,0,0,0-1.414-1.414L53,17.586V15A13.015,13.015,0,0,0,40,2a1,1,0,0,0,0,2A11.013,11.013,0,0,1,51,15v2.586l-4.293-4.293a1,1,0,0,0-1.414,1.414l6,6A1.014,1.014,0,0,0,51.618,20.923Z"/>
</svg>
