<svg xmlns="http://www.w3.org/2000/svg" width="469" height="444" viewBox="0 0 469 444">
  <metadata><?xpacket begin="﻿" id="W5M0MpCehiHzreSzNTczkc9d"?>
<x:xmpmeta xmlns:x="adobe:ns:meta/" x:xmptk="Adobe XMP Core 5.6-c138 79.159824, 2016/09/14-01:09:01        ">
   <rdf:RDF xmlns:rdf="http://www.w3.org/1999/02/22-rdf-syntax-ns#">
      <rdf:Description rdf:about=""/>
   </rdf:RDF>
</x:xmpmeta>
                                                                                                    
                                                                                                    
                                                                                                    
                                                                                                    
                                                                                                    
                                                                                                    
                                                                                                    
                                                                                                    
                                                                                                    
                                                                                                    
                                                                                                    
                                                                                                    
                                                                                                    
                                                                                                    
                                                                                                    
                                                                                                    
                                                                                                    
                                                                                                    
                                                                                                    
                                                                                                    
                           
<?xpacket end="w"?></metadata>
<defs>
    <style>
      .cls-1 {
        fill-rule: evenodd;
      }
    </style>
  </defs>
  <path class="cls-1" d="M433.5,1H38.5A37.543,37.543,0,0,0,1,38.5v300A37.543,37.543,0,0,0,38.5,376h145v55H131a7.5,7.5,0,0,0,0,15H341a7.5,7.5,0,0,0,0-15H288.5V376h145A37.543,37.543,0,0,0,471,338.5V38.5A37.543,37.543,0,0,0,433.5,1Zm-160,430h-75V376h75v55ZM456,338.5A22.526,22.526,0,0,1,433.5,361H38.5A22.526,22.526,0,0,1,16,338.5V316H456v22.5Zm0-37.5H16V38.5A22.526,22.526,0,0,1,38.5,16h395A22.526,22.526,0,0,1,456,38.5V301ZM433.5,31H38.5A7.5,7.5,0,0,0,31,38.5v240a7.5,7.5,0,0,0,7.5,7.5h325a7.5,7.5,0,0,0,0-15H46V46H426V271H393.5a7.5,7.5,0,0,0,0,15h40a7.5,7.5,0,0,0,7.5-7.5V38.5A7.5,7.5,0,0,0,433.5,31Z" transform="translate(-1 -1)"/>
</svg>
