<?xml version="1.0" encoding="utf-8"?>
<!-- Generator: Adobe Illustrator 21.1.0, SVG Export Plug-In . SVG Version: 6.00 Build 0)  -->
<svg version="1.1" id="Layer_3" xmlns="http://www.w3.org/2000/svg" xmlns:xlink="http://www.w3.org/1999/xlink" x="0px" y="0px"
	 viewBox="0 0 58.8 59" style="enable-background:new 0 0 58.8 59;" xml:space="preserve">
<path d="M52.6,54H1.2C0.6,54,0,53.4,0,52.7v-46c0-0.7,0.6-1.2,1.2-1.2h51.3c0.7,0,1.2,0.6,1.2,1.2v46C53.8,53.4,53.3,54,52.6,54z
	 M2.5,51.5h48.8V8H2.5V51.5z"/>
<path d="M57.6,59H6.3C5.6,59,5,58.4,5,57.7s0.6-1.2,1.2-1.2h50.1V11.8c0-0.7,0.6-1.2,1.2-1.2s1.2,0.6,1.2,1.2v46
	C58.8,58.4,58.3,59,57.6,59z"/>
<path d="M52.6,18H1.2C0.6,18,0,17.4,0,16.7s0.6-1.2,1.2-1.2h51.3c0.7,0,1.2,0.6,1.2,1.2S53.3,18,52.6,18z"/>
<g>
	<path d="M23.2,26.9h-3.3c-0.9,0-1.6-0.7-1.6-1.6v0c0-0.9,0.7-1.6,1.6-1.6h3.3c0.9,0,1.6,0.7,1.6,1.6v0
		C24.8,26.2,24.1,26.9,23.2,26.9z"/>
	<path d="M34,26.9h-3.3c-0.9,0-1.6-0.7-1.6-1.6v0c0-0.9,0.7-1.6,1.6-1.6H34c0.9,0,1.6,0.7,1.6,1.6v0C35.5,26.2,34.8,26.9,34,26.9z"
		/>
	<path d="M44.7,26.9h-3.3c-0.9,0-1.6-0.7-1.6-1.6v0c0-0.9,0.7-1.6,1.6-1.6h3.3c0.9,0,1.6,0.7,1.6,1.6v0
		C46.3,26.2,45.6,26.9,44.7,26.9z"/>
</g>
<g>
	<path d="M12.5,34.6H9.1c-0.9,0-1.6-0.7-1.6-1.6v0c0-0.9,0.7-1.6,1.6-1.6h3.3c0.9,0,1.6,0.7,1.6,1.6v0C14,33.9,13.3,34.6,12.5,34.6z
		"/>
	<path d="M23.2,34.6h-3.3c-0.9,0-1.6-0.7-1.6-1.6v0c0-0.9,0.7-1.6,1.6-1.6h3.3c0.9,0,1.6,0.7,1.6,1.6v0
		C24.8,33.9,24.1,34.6,23.2,34.6z"/>
	<path d="M34,34.6h-3.3c-0.9,0-1.6-0.7-1.6-1.6v0c0-0.9,0.7-1.6,1.6-1.6H34c0.9,0,1.6,0.7,1.6,1.6v0C35.5,33.9,34.8,34.6,34,34.6z"
		/>
	<path d="M44.7,34.6h-3.3c-0.9,0-1.6-0.7-1.6-1.6v0c0-0.9,0.7-1.6,1.6-1.6h3.3c0.9,0,1.6,0.7,1.6,1.6v0
		C46.3,33.9,45.6,34.6,44.7,34.6z"/>
</g>
<g>
	<path d="M12.5,42.2H9.1c-0.9,0-1.6-0.7-1.6-1.6v0c0-0.9,0.7-1.6,1.6-1.6h3.3c0.9,0,1.6,0.7,1.6,1.6v0C14,41.5,13.3,42.2,12.5,42.2z
		"/>
	<path d="M23.2,42.2h-3.3c-0.9,0-1.6-0.7-1.6-1.6v0c0-0.9,0.7-1.6,1.6-1.6h3.3c0.9,0,1.6,0.7,1.6,1.6v0
		C24.8,41.5,24.1,42.2,23.2,42.2z"/>
	<path d="M34,42.2h-3.3c-0.9,0-1.6-0.7-1.6-1.6v0c0-0.9,0.7-1.6,1.6-1.6H34c0.9,0,1.6,0.7,1.6,1.6v0C35.5,41.5,34.8,42.2,34,42.2z"
		/>
</g>
<path d="M10.8,13.8c-0.7,0-1.2-0.6-1.2-1.2V1.3c0-0.7,0.6-1.2,1.2-1.2S12,0.6,12,1.3v11.2C12,13.2,11.5,13.8,10.8,13.8z"/>
<path d="M43,13.8c-0.7,0-1.2-0.6-1.2-1.2V1.3C41.8,0.6,42.4,0,43,0s1.2,0.6,1.2,1.2v11.2C44.3,13.2,43.7,13.8,43,13.8z"/>
</svg>
