<?xml version="1.0" encoding="utf-8"?>
<!-- Generator: Adobe Illustrator 19.0.0, SVG Export Plug-In . SVG Version: 6.00 Build 0)  -->
<svg version="1.1" id="Layer_1" xmlns="http://www.w3.org/2000/svg" xmlns:xlink="http://www.w3.org/1999/xlink" x="0px" y="0px"
	 viewBox="-3 5 17 15" style="enable-background:new -3 5 17 15;" xml:space="preserve">
<desc>Generated with Avocode.</desc>
<g transform="translate(-570 -1951)">
	<g>
		<path id="a" d="M571.8,1962.2c-0.2-0.2-0.6-0.3-0.9,0c0,0,0,0,0,0c-0.2,0.2-0.2,0.6,0,0.9l3,3c0.1,0.1,0.3,0.2,0.4,0.2
			c0.2,0,0.3-0.1,0.4-0.2l9-8.9c0.2-0.2,0.2-0.6,0-0.9c-0.2-0.2-0.6-0.2-0.9,0l-3.2,3.2c-2.5-3.1-7-3.5-10.1-1
			c-1,0.8-1.8,1.9-2.2,3.1c-1.2,3.6,0.6,9.6,6.7,9.6c5,0,7.3-4.3,7.2-7.2c0-0.3-0.3-0.6-0.6-0.6s-0.6,0.3-0.6,0.6l0,0
			c0,3.3-2.7,5.9-6,5.9c-0.1,0-0.2,0-0.4,0c-3.3-0.3-5.7-3.1-5.4-6.4c0.1-1.3,0.6-2.6,1.5-3.5c2.3-2.4,6-2.5,8.4-0.2
			c0.2,0.2,0.4,0.4,0.6,0.6l-4.5,4.5L571.8,1962.2z"/>
	</g>
</g>
</svg>
