<svg xmlns="http://www.w3.org/2000/svg" width="22" height="22" viewBox="0 0 22 22">
  <metadata><?xpacket begin="﻿" id="W5M0MpCehiHzreSzNTczkc9d"?>
<x:xmpmeta xmlns:x="adobe:ns:meta/" x:xmptk="Adobe XMP Core 5.6-c138 79.159824, 2016/09/14-01:09:01        ">
   <rdf:RDF xmlns:rdf="http://www.w3.org/1999/02/22-rdf-syntax-ns#">
      <rdf:Description rdf:about=""/>
   </rdf:RDF>
</x:xmpmeta>
                                                                                                    
                                                                                                    
                                                                                                    
                                                                                                    
                                                                                                    
                                                                                                    
                                                                                                    
                                                                                                    
                                                                                                    
                                                                                                    
                                                                                                    
                                                                                                    
                                                                                                    
                                                                                                    
                                                                                                    
                                                                                                    
                                                                                                    
                                                                                                    
                                                                                                    
                                                                                                    
                           
<?xpacket end="w"?></metadata>
<defs>
    <style>
      .cls-1 {
        fill: #fff;
        fill-rule: evenodd;
      }
    </style>
  </defs>
  <path id="Forma_1" data-name="Forma 1" class="cls-1" d="M1210.94,301l-9.74,9.808a0.7,0.7,0,0,0,0,.986,0.673,0.673,0,0,0,.49.205,0.689,0.689,0,0,0,.49-0.205l9.81-9.882,9.82,9.882a0.688,0.688,0,0,0,.98,0,0.7,0.7,0,0,0,0-.986L1213.05,301l9.75-9.816a0.7,0.7,0,0,0,0-.986,0.69,0.69,0,0,0-.98,0l-9.83,9.889-9.82-9.889a0.69,0.69,0,0,0-.98,0,0.7,0.7,0,0,0,0,.987Z" transform="translate(-1201 -290)"/>
</svg>
