<?xml version="1.0" encoding="utf-8"?>
<!-- Generator: Adobe Illustrator 21.1.0, SVG Export Plug-In . SVG Version: 6.00 Build 0)  -->
<svg version="1.1" id="Layer_3" xmlns="http://www.w3.org/2000/svg" xmlns:xlink="http://www.w3.org/1999/xlink" x="0px" y="0px"
	 viewBox="0 0 68.5 57.7" style="enable-background:new 0 0 68.5 57.7;" xml:space="preserve">
<path d="M18.1,57.7H4.2c-2.3,0-4.2-1.9-4.2-4.2V23.7c0-2.3,1.9-4.2,4.2-4.2h13.9c2.3,0,4.2,1.9,4.2,4.2v29.8
	C22.4,55.8,20.5,57.7,18.1,57.7z M4.2,21.9c-1,0-1.7,0.8-1.7,1.8v29.8c0,1,0.8,1.8,1.7,1.8h13.9c1,0,1.8-0.8,1.8-1.8V23.7
	c0-1-0.8-1.8-1.8-1.8H4.2z"/>
<path d="M64.2,45.1H21.1c-0.7,0-1.2-0.6-1.2-1.2s0.6-1.2,1.2-1.2h43.1c1,0,1.8-0.8,1.8-1.8V4.2c0-1-0.8-1.8-1.8-1.8h-53
	c-1,0-1.8,0.8-1.8,1.8v15.5c0,0.7-0.6,1.2-1.2,1.2S7,20.4,7,19.8V4.2C7,1.9,8.9,0,11.3,0h53c2.3,0,4.2,1.9,4.2,4.2v36.6
	C68.5,43.2,66.6,45.1,64.2,45.1z"/>
<path d="M21.1,49.9H1.2c-0.7,0-1.2-0.6-1.2-1.2s0.6-1.2,1.2-1.2h19.9c0.7,0,1.2,0.6,1.2,1.2S21.8,49.9,21.1,49.9z"/>
<path d="M66.6,36.2H21.1c-0.7,0-1.2-0.6-1.2-1.2s0.6-1.2,1.2-1.2h45.5c0.7,0,1.2,0.6,1.2,1.2S67.3,36.2,66.6,36.2z"/>
<path d="M47.7,51H27.8c-0.7,0-1.2-0.6-1.2-1.2s0.6-1.2,1.2-1.2h19.9c0.7,0,1.2,0.6,1.2,1.2S48.4,51,47.7,51z"/>
</svg>
