<svg xmlns="http://www.w3.org/2000/svg" xmlns:xlink="http://www.w3.org/1999/xlink" width="49" height="62" viewBox="0 0 49 62"><defs><path id="iblla" d="M37 23a1 1 0 0 1-1 1H11a1 1 0 1 1 0-2h25a1 1 0 0 1 1 1zm-27-8a1 1 0 0 1 1-1h10a1 1 0 1 1 0 2H11a1 1 0 0 1-1-1zm27 16a1 1 0 0 1-1 1H11a1 1 0 1 1 0-2h25a1 1 0 0 1 1 1zm0 8a1 1 0 0 1-1 1H11a1 1 0 1 1 0-2h25a1 1 0 0 1 1 1zm0 8a1 1 0 0 1-1 1H11a1 1 0 1 1 0-2h25a1 1 0 0 1 1 1zm10-32.41V60H0V0h32.41zM33 14h10.59L33 3.41zm12 44V16H31V2H2v56z"/></defs><g><g transform="translate(1 1)"><use xlink:href="#iblla"/></g></g></svg>