<svg xmlns="http://www.w3.org/2000/svg" xmlns:xlink="http://www.w3.org/1999/xlink" width="54" height="100" viewBox="0 0 54 100"><defs><path id="rxmpa" d="M50.04.02L37.57 0C23.56 0 14.5 9.27 14.5 23.63v10.89H1.96C.88 34.52 0 35.4 0 36.48v15.78c0 1.08.88 1.96 1.96 1.96H14.5v39.82c0 1.09.88 1.96 1.96 1.96h16.36c1.09 0 1.96-.88 1.96-1.96V54.22h14.67c1.08 0 1.96-.88 1.96-1.96V36.48a1.96 1.96 0 0 0-1.96-1.96H34.8v-9.24c0-4.43 1.06-6.69 6.85-6.69h8.4c1.08 0 1.96-.88 1.96-1.96V1.98C52 .9 51.12.02 50.04.02z"/></defs><g><g transform="translate(1 2)"><use xlink:href="#rxmpa"/></g></g></svg>