<?xml version="1.0" encoding="utf-8"?>
<!-- Generator: Adobe Illustrator 21.1.0, SVG Export Plug-In . SVG Version: 6.00 Build 0)  -->
<svg version="1.1" id="Layer_3" xmlns="http://www.w3.org/2000/svg" xmlns:xlink="http://www.w3.org/1999/xlink" x="0px" y="0px"
	 viewBox="0 0 82.8 63.3" style="enable-background:new 0 0 82.8 63.3;" xml:space="preserve">
<g>
	<path d="M46.9,62.9c-1,0-2-0.4-2.8-1.1l-0.9-0.9c-0.7-0.7-1.1-1.7-1.1-2.8s0.4-2,1.1-2.8l8.6-8.6c0.5-0.5,1.3-0.5,1.8,0
		s0.5,1.3,0,1.8L45,57.1c-0.3,0.3-0.4,0.6-0.4,1c0,0.4,0.1,0.7,0.4,1l0.9,0.9c0.5,0.5,1.4,0.6,2,0l14.4-14.4c0.5-0.5,1.3-0.5,1.8,0
		s0.5,1.3,0,1.8L49.7,61.8C48.9,62.5,47.9,62.9,46.9,62.9z"/>
	<path d="M74.2,30.8c-1.1,0-2.2-0.4-3-1.2L54.8,13.1c-1.7-1.7-1.7-4.4,0-6l4.3-4.3c1.7-1.7,4.4-1.7,6,0c0,0,0,0,0,0l16.4,16.4
		c0.8,0.8,1.2,1.9,1.2,3c0,1.1-0.4,2.2-1.2,3l-4.3,4.3C76.4,30.3,75.4,30.8,74.2,30.8z M62.1,4.1c-0.4,0-0.9,0.2-1.2,0.5l-4.3,4.3
		c-0.7,0.7-0.7,1.8,0,2.5L73,27.7c0.7,0.7,1.8,0.7,2.5,0l4.3-4.3c0.3-0.3,0.5-0.8,0.5-1.2c0-0.5-0.2-0.9-0.5-1.2L63.4,4.6v0
		C63,4.3,62.6,4.1,62.1,4.1z"/>
	<path d="M37.1,63.3c-1,0-2-0.4-2.8-1.1l-0.9-0.9c-1.5-1.5-1.5-4,0-5.5L44,45.1c0.5-0.5,1.3-0.5,1.8,0s0.5,1.3,0,1.8L35.2,57.5
		c-0.5,0.5-0.5,1.4,0,2l0.9,0.9c0.5,0.5,1.5,0.5,2,0L52.5,46c0.5-0.5,1.3-0.5,1.8,0s0.5,1.3,0,1.8L39.9,62.2
		C39.1,62.9,38.2,63.3,37.1,63.3z"/>
	<path d="M29.4,61.7c-1,0-2-0.4-2.8-1.1l-0.9-0.9c-0.7-0.7-1.1-1.7-1.1-2.8s0.4-2,1.1-2.8l14.4-14.4c0.5-0.5,1.3-0.5,1.8,0
		s0.5,1.3,0,1.8L27.4,55.8c-0.3,0.3-0.4,0.6-0.4,1c0,0.4,0.1,0.7,0.4,1l0.9,0.9c0.5,0.5,1.4,0.5,2,0l14.4-14.4
		c0.5-0.5,1.3-0.5,1.8,0s0.5,1.3,0,1.8L32.1,60.5C31.4,61.3,30.4,61.7,29.4,61.7z"/>
	<path d="M27,54.6c-1,0-2-0.4-2.8-1.1l-0.9-0.9c-0.7-0.7-1.1-1.7-1.1-2.8s0.4-2,1.1-2.8l14.4-14.4c0.5-0.5,1.3-0.5,1.8,0
		s0.5,1.3,0,1.8L25.1,48.8c-0.3,0.3-0.4,0.6-0.4,1c0,0.4,0.1,0.7,0.4,1l0.9,0.9c0.5,0.5,1.5,0.5,2,0l14.4-14.4
		c0.5-0.5,1.3-0.5,1.8,0s0.5,1.3,0,1.8L29.8,53.5C29,54.2,28,54.6,27,54.6z"/>
	<path d="M63.2,47.7c-0.2,0-0.5-0.1-0.7-0.2c-0.6-0.4-0.8-1.1-0.4-1.7l10.4-16.3c0.4-0.6,1.1-0.8,1.7-0.4c0.6,0.4,0.8,1.1,0.4,1.7
		L64.3,47.1C64,47.5,63.6,47.7,63.2,47.7z"/>
	<path d="M54,18.6c-0.3,0-0.6-0.1-0.9-0.4c-0.5-0.5-0.5-1.3,0-1.8l3.4-3.5c0.5-0.5,1.3-0.5,1.8,0c0.5,0.5,0.5,1.3,0,1.8l-3.4,3.5
		C54.6,18.5,54.3,18.6,54,18.6z"/>
	<path d="M35.8,37.5c-0.3,0-0.6-0.1-0.9-0.3c-0.5-0.5-0.5-1.3-0.1-1.8l10.5-11.3c0.5-0.5,1.3-0.5,1.8-0.1c0.5,0.5,0.5,1.3,0.1,1.8
		L36.7,37.1C36.5,37.4,36.1,37.5,35.8,37.5z"/>
</g>
<path d="M8.5,29.2c-1.1,0-2.2-0.4-3-1.2l-4.3-4.3c-0.8-0.8-1.2-1.9-1.2-3c0-1.1,0.4-2.2,1.2-3L17.6,1.2c1.7-1.7,4.4-1.7,6,0l4.3,4.3
	c0.8,0.8,1.2,1.9,1.2,3s-0.4,2.2-1.2,3L11.5,27.9C10.7,28.7,9.6,29.2,8.5,29.2z M20.6,2.5c-0.5,0-0.9,0.2-1.2,0.5L3,19.4
	c-0.7,0.7-0.7,1.8,0,2.5l4.3,4.3c0.7,0.7,1.8,0.7,2.5,0L26.1,9.8c0.3-0.3,0.5-0.8,0.5-1.2s-0.2-0.9-0.5-1.2L21.9,3
	C21.5,2.7,21.1,2.5,20.6,2.5z"/>
<path d="M50.8,25.6H34.3c-0.7,0-1.2-0.6-1.2-1.2s0.6-1.2,1.2-1.2h16.5c0.8,0,1.4-1,1.4-2.2v-1.7c0-1.2-0.7-2.2-1.4-2.2h-22
	c-0.7,0-1.2-0.6-1.2-1.3c0-0.7,0.6-1.2,1.2-1.2h22c2.2,0,3.9,2.1,3.9,4.7v1.7C54.7,23.5,52.9,25.6,50.8,25.6z"/>
<path d="M21.9,48.8c-0.4,0-0.7-0.1-0.9-0.4l-2.3-2.7c0,0-0.1-0.1-0.1-0.1L8.1,29.2c-0.4-0.6-0.2-1.4,0.4-1.7
	c0.6-0.4,1.4-0.2,1.7,0.4l10.4,16.2l2.3,2.6c0.5,0.5,0.4,1.3-0.1,1.8C22.4,48.7,22.2,48.8,21.9,48.8z"/>
<path d="M28.8,17c-0.3,0-0.6-0.1-0.9-0.4l-3.4-3.5c-0.5-0.5-0.5-1.3,0-1.8c0.5-0.5,1.3-0.5,1.8,0l3.4,3.5c0.5,0.5,0.5,1.3,0,1.8
	C29.4,16.9,29.1,17,28.8,17z"/>
<path d="M41.3,30.5c-0.3,0-0.6-0.1-0.9-0.3l-5.3-5c-0.5-0.5-0.5-1.3,0-1.8c0.5-0.5,1.3-0.5,1.8,0l5.3,5c0.5,0.5,0.5,1.3,0,1.8
	C41.9,30.4,41.6,30.5,41.3,30.5z"/>
</svg>
