<?xml version="1.0" encoding="utf-8"?>
<!-- Generator: Adobe Illustrator 21.1.0, SVG Export Plug-In . SVG Version: 6.00 Build 0)  -->
<svg version="1.1" id="Layer_3" xmlns="http://www.w3.org/2000/svg" xmlns:xlink="http://www.w3.org/1999/xlink" x="0px" y="0px"
	 viewBox="0 0 69.6 58.6" style="enable-background:new 0 0 69.6 58.6;" xml:space="preserve">
<path d="M38.3,54.6c-0.2,0-0.4,0-0.6-0.1c-0.1-0.1-3.6-1.6-8.3-4.5c-0.6-0.4-0.8-1.1-0.4-1.7c0.4-0.6,1.1-0.8,1.7-0.4
	c3.5,2.2,6.4,3.6,7.5,4.1c3.7-1.7,28.8-14.2,28.8-35.2c0-7.9-6.2-14.3-13.8-14.3c-6.7,0-13.6,3.7-13.8,12c0,0.7-0.6,1.2-1.2,1.2
	s-1.2-0.5-1.2-1.2c-0.2-8.3-7-12-13.8-12c-7.6,0-13.8,6.4-13.8,14.3c0,3.3,0.6,6.6,1.8,9.7c0.2,0.6-0.1,1.4-0.7,1.6
	C10,28.4,9.3,28,9,27.4c-1.3-3.4-2-7-2-10.6C7,7.5,14.3,0,23.3,0c7.2,0,12.7,3.3,15,8.6c2.3-5.3,7.8-8.6,15-8.6
	c9,0,16.3,7.5,16.3,16.8c0,10.1-5.3,19.8-15.5,28.1c-7.6,6.2-15,9.4-15.3,9.6C38.7,54.5,38.5,54.6,38.3,54.6z"/>
<path d="M18.4,58.6c-0.2,0-0.4,0-0.5-0.1C17.1,58.2,0,50.7,0,36.5C0,31,4.4,26.5,9.8,26.5c3.8,0,6.9,1.6,8.5,4.3
	c1.6-2.7,4.7-4.3,8.5-4.3c5.4,0,9.8,4.5,9.8,10.1c0,14.1-17.1,21.6-17.8,21.9C18.7,58.5,18.5,58.6,18.4,58.6z M18.4,57.3L18.4,57.3
	L18.4,57.3z M9.8,29c-4,0-7.3,3.4-7.3,7.6c0,11.3,13.1,18.1,15.8,19.4c2.7-1.3,15.8-8.1,15.8-19.4c0-4.2-3.3-7.6-7.3-7.6
	c-3.3,0-7.2,1.6-7.3,6.3c0,0.7-0.6,1.2-1.2,1.2s-1.2-0.5-1.2-1.2C17,30.6,13.1,29,9.8,29z"/>
<path d="M58.3,13c-0.7,0-1.2-0.6-1.2-1.2c0-0.3-1.4-1.4-4.4-1.4s-4.4,1.1-4.4,1.4c0,0.7-0.6,1.2-1.2,1.2s-1.2-0.6-1.2-1.2
	c0-2.3,2.9-3.9,6.9-3.9s6.9,1.6,6.9,3.9C59.6,12.5,59,13,58.3,13z"/>
</svg>
