<svg xmlns="http://www.w3.org/2000/svg" xmlns:xlink="http://www.w3.org/1999/xlink" width="173" height="173" viewBox="0 0 173 173"><defs><path id="knc3a" d="M169 46.64v75.72A46.7 46.7 0 0 1 122.36 169H46.64A46.69 46.69 0 0 1 0 122.36V46.64A46.7 46.7 0 0 1 46.64 0h75.72A46.7 46.7 0 0 1 169 46.64zm-15 75.72V46.64a31.68 31.68 0 0 0-31.64-31.65H46.64a31.68 31.68 0 0 0-31.65 31.65v75.72a31.68 31.68 0 0 0 31.65 31.65h75.72a31.68 31.68 0 0 0 31.65-31.65zM128.05 84.5a43.6 43.6 0 0 1-43.55 43.55A43.6 43.6 0 0 1 40.95 84.5 43.6 43.6 0 0 1 84.5 40.95a43.6 43.6 0 0 1 43.55 43.55zm-15 0A28.58 28.58 0 0 0 84.5 55.95 28.58 28.58 0 0 0 55.95 84.5a28.58 28.58 0 0 0 28.55 28.55 28.58 28.58 0 0 0 28.55-28.55zm24.6-53.04a11.04 11.04 0 0 1 0 15.55 11.1 11.1 0 0 1-7.78 3.22c-2.89 0-5.73-1.18-7.76-3.22a11.09 11.09 0 0 1-3.23-7.77 11.05 11.05 0 0 1 11-11c2.9 0 5.73 1.17 7.77 3.22z"/></defs><g><g transform="translate(2 2)"><use xlink:href="#knc3a"/></g></g></svg>