<svg xmlns="http://www.w3.org/2000/svg" xmlns:xlink="http://www.w3.org/1999/xlink" width="30" height="23" viewBox="0 0 30 23"><defs><path id="tnxma" d="M1061 438.67c0 .58-.16 1.12-.42 1.6l-8.2-9.42 8.11-7.29c.32.52.51 1.12.51 1.77zm-24.3-16.25c.46-.26.99-.42 1.55-.42h19.5c.56 0 1.09.16 1.55.42l-11.3 10.14zm22.76 19.07c-.5.32-1.08.51-1.71.51h-19.5c-.63 0-1.22-.2-1.71-.51l8.3-9.54 2.63 2.34a.8.8 0 0 0 1.06 0l2.62-2.34zm-15.83-10.64l-8.21 9.42a3.36 3.36 0 0 1-.42-1.6v-13.34c0-.65.19-1.25.5-1.77z"/></defs><g><g transform="translate(-1033 -420)"><use xlink:href="#tnxma"/></g></g></svg>