<svg xmlns="http://www.w3.org/2000/svg" xmlns:xlink="http://www.w3.org/1999/xlink" preserveAspectRatio="xMidYMid" width="45" height="45" viewBox="0 0 45 45">
  <defs>
    <style>
      .cls-1 {
        fill: #fff;
        fill-rule: evenodd;
      }
    </style>
  </defs>
  <path d="M22.500,45.000 C10.094,45.000 0.000,34.906 0.000,22.500 C0.000,10.093 10.094,0.000 22.500,0.000 C34.906,0.000 45.000,10.093 45.000,22.500 C45.000,34.906 34.906,45.000 22.500,45.000 ZM22.500,1.607 C10.979,1.607 1.607,10.980 1.607,22.500 C1.607,34.020 10.979,43.393 22.500,43.393 C34.021,43.393 43.393,34.020 43.393,22.500 C43.393,10.980 34.021,1.607 22.500,1.607 ZM32.143,32.143 L12.857,32.143 C12.413,32.143 12.054,31.783 12.054,31.339 C12.054,30.896 12.413,30.535 12.857,30.535 L32.143,30.535 C32.587,30.535 32.946,30.896 32.946,31.339 C32.946,31.783 32.587,32.143 32.143,32.143 ZM32.143,23.304 L12.857,23.304 C12.413,23.304 12.054,22.944 12.054,22.500 C12.054,22.056 12.413,21.696 12.857,21.696 L32.143,21.696 C32.587,21.696 32.946,22.056 32.946,22.500 C32.946,22.944 32.587,23.304 32.143,23.304 ZM32.143,14.464 L12.857,14.464 C12.413,14.464 12.054,14.105 12.054,13.661 C12.054,13.217 12.413,12.857 12.857,12.857 L32.143,12.857 C32.587,12.857 32.946,13.217 32.946,13.661 C32.946,14.105 32.587,14.464 32.143,14.464 Z" class="cls-1"/>
</svg>
