<svg xmlns="http://www.w3.org/2000/svg" width="33" height="33" viewBox="0 0 33 33">
  <metadata><?xpacket begin="﻿" id="W5M0MpCehiHzreSzNTczkc9d"?>
<x:xmpmeta xmlns:x="adobe:ns:meta/" x:xmptk="Adobe XMP Core 5.6-c138 79.159824, 2016/09/14-01:09:01        ">
   <rdf:RDF xmlns:rdf="http://www.w3.org/1999/02/22-rdf-syntax-ns#">
      <rdf:Description rdf:about=""/>
   </rdf:RDF>
</x:xmpmeta>
                                                                                                    
                                                                                                    
                                                                                                    
                                                                                                    
                                                                                                    
                                                                                                    
                                                                                                    
                                                                                                    
                                                                                                    
                                                                                                    
                                                                                                    
                                                                                                    
                                                                                                    
                                                                                                    
                                                                                                    
                                                                                                    
                                                                                                    
                                                                                                    
                                                                                                    
                                                                                                    
                           
<?xpacket end="w"?></metadata>
<defs>
    <style>
      .cls-1 {
        fill: #fff;
        fill-rule: evenodd;
      }
    </style>
  </defs>
  <path id="Forma_1" data-name="Forma 1" class="cls-1" d="M294.5,23A16.5,16.5,0,1,0,311,39.5,16.519,16.519,0,0,0,294.5,23Zm0,31.731A15.231,15.231,0,1,1,309.731,39.5,15.249,15.249,0,0,1,294.5,54.731Zm6.16-21.391a0.634,0.634,0,0,0-.9,0L294.5,38.6l-5.263-5.263a0.634,0.634,0,0,0-.9.9L293.6,39.5l-5.263,5.263a0.634,0.634,0,1,0,.9.9L294.5,40.4l5.263,5.263a0.634,0.634,0,0,0,.9-0.9L295.4,39.5l5.263-5.263A0.634,0.634,0,0,0,300.66,33.34Z" transform="translate(-278 -23)"/>
</svg>
