<svg xmlns="http://www.w3.org/2000/svg" xmlns:xlink="http://www.w3.org/1999/xlink" width="47" height="42" viewBox="0 0 47 42"><defs><path id="jkiya" d="M1123.41 1771l-7.78 4.7a1.08 1.08 0 0 1-1.47-.37c-.31-.5-.15-1.17.36-1.48l7.82-4.74.06-.03c.18-.1 4.43-2.26 8.31-1.08l7.86 2.38c.42.12.71.5.76.93.13 1.4-.6 3.64-3.12 4.04-2.55.41-6.47.17-6.64.16a1.07 1.07 0 0 1 .13-2.14c.04 0 3.86.23 6.17-.13.62-.1 1-.39 1.2-.9l.04-.14-7.01-2.14c-2.93-.88-6.35.76-6.69.94zm33.16-1.36l-15.55 11.42a7 7 0 0 1-5.21 1.26l-12.53-2-2.92 2.43a1.07 1.07 0 0 1-1.5-.13 1.07 1.07 0 0 1 .13-1.52l3.29-2.75c.24-.2.55-.28.85-.23l13 2.08c1.27.2 2.58-.12 3.62-.88l14.57-10.7-.04-.03c-.57-.35-1.22-.35-2 0-2.72 1.2-8.5 4-8.57 4.03-.52.26-1.17.03-1.43-.5a1.07 1.07 0 0 1 .5-1.44c.07-.02 5.88-2.83 8.64-4.06a4.08 4.08 0 0 1 5.45 1.64c.26.48.12 1.06-.3 1.38zm-24-4.45a6.28 6.28 0 0 1 4.43-10.7 6.28 6.28 0 0 1 0 12.53 6.23 6.23 0 0 1-4.42-1.83zm1.53-1.51a4.07 4.07 0 0 0 5.8 0 4.13 4.13 0 0 0-2.9-7.03c-1.1 0-2.12.43-2.9 1.2a4.13 4.13 0 0 0 0 5.83zm6.79-10.33a4.9 4.9 0 0 1 3.45-8.35 4.9 4.9 0 0 1 0 9.78c-1.3 0-2.53-.5-3.45-1.43zm1.52-1.51a2.72 2.72 0 0 0 3.88 0 2.76 2.76 0 0 0-1.94-4.69c-.73 0-1.42.29-1.94.8a2.76 2.76 0 0 0 0 3.89z"/></defs><g><g transform="translate(-1112 -1743)"><use xlink:href="#jkiya"/></g></g></svg>