<svg xmlns="http://www.w3.org/2000/svg" xmlns:xlink="http://www.w3.org/1999/xlink" width="25" height="25" viewBox="0 0 25 25"><defs><path id="jsi3a" d="M422 7635.25v14.06c0 .93-.77 1.69-1.72 1.69h-12.85a1.7 1.7 0 0 1-1.72-1.7v-3.8h-3.43c-.7 0-1.28-.57-1.28-1.27v-6.35c0-.7.58-1.26 1.28-1.26h3.43v-5.93c0-.93.77-1.69 1.72-1.69h8.46c.12 0 .23.05.31.13l5.68 5.82c.08.08.12.19.12.3zm-6-.33h4.66l-4.66-4.78zm-2.14 9.73c.23 0 .43-.19.43-.42v-6.35c0-.23-.2-.42-.43-.42h-11.58a.42.42 0 0 0-.42.42v6.35c0 .23.19.42.42.42zm7.28 4.66v-13.54h-5.57a.43.43 0 0 1-.43-.42v-5.5h-7.7a.86.86 0 0 0-.87.84v5.93h7.29c.7 0 1.28.56 1.28 1.26v6.35c0 .7-.57 1.27-1.28 1.27h-7.29v3.8c0 .47.39.85.86.85h12.85c.48 0 .86-.38.86-.84zm-14.8-8.86c0 .22-.04.4-.13.56a1 1 0 0 1-.3.36c-.14.08-.26.14-.4.17-.17.03-.43.05-.77.05h-.48v1.37h-.74v-3.63h1.19c.45 0 .75.02.88.05.21.06.4.18.53.36.15.18.22.42.22.7zm-.77 0a.47.47 0 0 0-.12-.32.52.52 0 0 0-.3-.16 3.6 3.6 0 0 0-.53-.03h-.36v1.03h.4c.3 0 .5-.02.6-.05a.48.48 0 0 0 .32-.46zm4.46.73c0 .3-.04.56-.11.77-.1.27-.23.48-.4.64-.13.13-.3.23-.52.3-.16.05-.38.07-.66.07h-1.4v-3.63h1.36c.31 0 .54.02.7.07.22.06.4.17.56.33.15.16.27.36.35.6.08.22.12.5.12.85zm-.77-.03c0-.28-.02-.5-.07-.65a.83.83 0 0 0-.21-.35.7.7 0 0 0-.35-.17c-.1-.03-.3-.04-.6-.04h-.34v2.4h.55c.21 0 .36 0 .45-.03a.68.68 0 0 0 .3-.15.77.77 0 0 0 .2-.35c.05-.16.07-.38.07-.66zm2.15-1.2v.85h1.54v.62h-1.54v1.54h-.74v-3.63h2.52v.61z"/></defs><g><g transform="translate(-399 -7627)"><use xlink:href="#jsi3a"/></g></g></svg>