<svg xmlns="http://www.w3.org/2000/svg" xmlns:xlink="http://www.w3.org/1999/xlink" width="24" height="23" viewBox="0 0 24 23"><defs><path id="qyula" d="M738.99 437.78c.04.33-.06.61-.3.85l-2.81 2.8a2.06 2.06 0 0 1-1.5.57 9.76 9.76 0 0 1-3.5-.82c-.88-.36-1.86-.9-2.96-1.62-1.1-.72-2.28-1.7-3.52-2.96-.99-.98-1.8-1.9-2.45-2.8a19.92 19.92 0 0 1-1.57-2.47 13.3 13.3 0 0 1-1.3-3.64 5.25 5.25 0 0 1-.06-1.47 2.06 2.06 0 0 1 .55-1.1l2.82-2.82c.2-.2.42-.3.68-.3.18 0 .34.05.49.16.14.1.26.24.36.4l2.26 4.3c.13.22.16.46.1.73-.05.27-.17.5-.35.68l-1.04 1.04a.35.35 0 0 0-.07.14.52.52 0 0 0-.04.16c.06.3.19.63.38 1.01.17.34.43.75.79 1.24.35.49.85 1.05 1.5 1.69.64.65 1.2 1.15 1.7 1.51.49.36.9.63 1.23.8.34.17.59.27.77.3l.26.06a.5.5 0 0 0 .14-.04l.14-.07 1.2-1.23c.26-.22.55-.34.9-.34.23 0 .42.04.56.13h.02l4.1 2.41c.29.19.46.42.52.7z"/></defs><g><g transform="translate(-717 -420)"><use xlink:href="#qyula"/></g></g></svg>