<svg xmlns="http://www.w3.org/2000/svg" xmlns:xlink="http://www.w3.org/1999/xlink" width="42" height="43" viewBox="0 0 42 43"><defs><path id="fd4xa" d="M948.45 1772.7a4 4 0 0 1 1.24 2.82c0 1.01-.42 2-1.21 2.85-.35.37-.7.72-1.05 1.06-.5.5-.99.97-1.4 1.49l-.04.04a6 6 0 0 1-5.14 2.02c-2.76-.18-5.23-1.24-7.08-2.14a37.98 37.98 0 0 1-12.6-10.1 35.62 35.62 0 0 1-6.16-10.5 14.73 14.73 0 0 1-1.03-6.1 6.08 6.08 0 0 1 1.75-3.83l2.73-2.83.02-.01a3.9 3.9 0 0 1 2.73-1.21c.99 0 1.92.42 2.7 1.2.52.5 1.03 1.03 1.51 1.54l.75.78 2.2 2.25c1.68 1.72 1.68 3.96 0 5.7-.23.22-.46.46-.68.7-.6.6-1.2 1.25-1.87 1.87.5 1.11 1.17 2.2 2.17 3.5a27.86 27.86 0 0 0 6.62 6.18c.24.15.5.29.8.43l.62.33 2.54-2.59a3.84 3.84 0 0 1 2.75-1.27c1 0 1.94.45 2.72 1.28zm-1.54 1.55l-4.43-4.54-.02-.01c-.25-.28-.66-.6-1.16-.6-.5 0-.94.33-1.21.61l-2.75 2.82a1.7 1.7 0 0 1-1.22.57c-.27 0-.53-.07-.8-.2l-.1-.07c-.23-.14-.5-.28-.8-.43-.31-.17-.65-.34-.98-.55a29.78 29.78 0 0 1-7.14-6.65l-.01-.01a18.13 18.13 0 0 1-2.62-4.41c-.15-.47-.28-1.16.42-1.87 0-.02.02-.03.04-.04.7-.65 1.34-1.3 2.01-2.01l.7-.71c.85-.87.85-1.68 0-2.55l-2.2-2.25-.76-.8c-.5-.52-.96-1-1.45-1.47l-.03-.03c-.25-.26-.66-.57-1.17-.57-.41 0-.83.2-1.22.58l-2.74 2.8a3.82 3.82 0 0 0-1.11 2.45 12 12 0 0 0 .9 5.16 33.59 33.59 0 0 0 5.79 9.87 35.86 35.86 0 0 0 11.87 9.51c1.66.82 3.88 1.77 6.27 1.93h.37c1.25 0 2.21-.41 3.02-1.3.5-.6 1.03-1.14 1.56-1.65l.98-1c-.01 0-.01 0 0 0 .82-.88.82-1.74-.01-2.58zm-13.27-22.26c.1-.6.66-1 1.25-.9 2.55.44 4.88 1.68 6.72 3.56a12.8 12.8 0 0 1 3.48 6.88c.1.6-.3 1.18-.9 1.28l-.18.02c-.52 0-.98-.38-1.07-.93a10.58 10.58 0 0 0-2.88-5.68 10.12 10.12 0 0 0-5.54-2.94 1.1 1.1 0 0 1-.88-1.29zm17.46 10.48l-.19.02c-.52 0-.98-.38-1.07-.92a18.8 18.8 0 0 0-5.12-10.12 18.14 18.14 0 0 0-9.88-5.24c-.6-.11-1-.68-.9-1.29.11-.6.66-1.01 1.25-.9 4.2.73 8.02 2.75 11.06 5.87a21.06 21.06 0 0 1 5.73 11.31c.1.6-.3 1.18-.88 1.27z"/></defs><g><g transform="translate(-912 -1742)"><use xlink:href="#fd4xa"/></g></g></svg>