<?xml version="1.0" encoding="utf-8"?>
<!-- Generator: Adobe Illustrator 21.1.0, SVG Export Plug-In . SVG Version: 6.00 Build 0)  -->
<svg version="1.1" id="Layer_3" xmlns="http://www.w3.org/2000/svg" xmlns:xlink="http://www.w3.org/1999/xlink" x="0px" y="0px"
	 viewBox="0 0 54.5 55.8" style="enable-background:new 0 0 54.5 55.8;" xml:space="preserve">
<path d="M1.3,55.8c-0.7,0-1.2-0.6-1.2-1.2V5.7C0,5,0.6,4.4,1.3,4.4S2.5,5,2.5,5.7v48.8C2.5,55.2,1.9,55.8,1.3,55.8z"/>
<path d="M53.2,55.8h-52c-0.7,0-1.2-0.6-1.2-1.2s0.6-1.2,1.2-1.2h52c0.7,0,1.2,0.6,1.2,1.2S53.9,55.8,53.2,55.8z"/>
<path d="M14.4,49.2h-4.1C8.5,49.2,7,47.7,7,46V32.7c0-1.8,1.5-3.2,3.2-3.2h4.1c1.8,0,3.3,1.5,3.3,3.2V46
	C17.6,47.7,16.2,49.2,14.4,49.2z M10.3,31.9c-0.4,0-0.8,0.3-0.8,0.8V46c0,0.4,0.3,0.8,0.8,0.8h4.1c0.4,0,0.8-0.3,0.8-0.8V32.7
	c0-0.4-0.3-0.8-0.8-0.8H10.3z"/>
<path d="M28.8,49.2h-4.1c-1.8,0-3.2-1.5-3.2-3.2V24.9c0-1.8,1.5-3.2,3.2-3.2h4.1c1.8,0,3.2,1.5,3.2,3.2V46
	C32,47.7,30.6,49.2,28.8,49.2z M24.7,24.1c-0.4,0-0.8,0.3-0.8,0.8V46c0,0.4,0.3,0.8,0.8,0.8h4.1c0.4,0,0.8-0.3,0.8-0.8V24.9
	c0-0.4-0.3-0.8-0.8-0.8H24.7z"/>
<path d="M43.1,49.2H39c-1.8,0-3.2-1.5-3.2-3.2V17c0-1.8,1.5-3.2,3.2-3.2h4.1c1.8,0,3.2,1.5,3.2,3.2V46
	C46.4,47.7,44.9,49.2,43.1,49.2z M39,16.3c-0.4,0-0.8,0.3-0.8,0.8V46c0,0.4,0.3,0.8,0.8,0.8h4.1c0.4,0,0.8-0.3,0.8-0.8V17
	c0-0.4-0.3-0.8-0.8-0.8H39z"/>
<path d="M8.3,25.1c-0.7,0-1.2-0.5-1.2-1.2c0-0.7,0.5-1.3,1.2-1.3c0.2,0,18.6-1.3,32.8-19.9c0.4-0.5,1.2-0.7,1.8-0.2
	c0.5,0.4,0.7,1.2,0.2,1.8C28,23.8,9.2,25.1,8.3,25.1C8.3,25.1,8.3,25.1,8.3,25.1z"/>
<path d="M44.3,6.4c-0.6,0-1.1-0.4-1.2-1l-0.5-2.6l-2.6,0.5c-0.7,0.1-1.3-0.3-1.4-1c-0.1-0.7,0.3-1.3,1-1.4L43.4,0
	C43.7,0,44,0,44.3,0.2c0.3,0.2,0.5,0.5,0.5,0.8l0.7,3.9c0.1,0.7-0.3,1.3-1,1.4C44.4,6.4,44.3,6.4,44.3,6.4z"/>
</svg>
