<svg xmlns="http://www.w3.org/2000/svg" xmlns:xlink="http://www.w3.org/1999/xlink" preserveAspectRatio="xMidYMid" width="17.219" height="15.78" viewBox="0 0 17.219 15.78">
  <path d="M14.471,8.491 C13.929,8.343 13.657,8.083 13.657,7.713 C13.657,7.022 14.360,5.652 15.766,3.602 C16.284,2.861 16.543,2.170 16.543,1.528 C16.543,0.516 16.087,0.009 15.174,0.009 C14.632,0.009 14.040,0.404 13.398,1.194 C10.759,4.454 9.439,7.578 9.439,10.565 C9.439,12.021 9.846,13.256 10.660,14.269 C11.474,15.281 12.486,15.787 13.694,15.787 C14.681,15.787 15.513,15.429 16.192,14.713 C16.870,13.997 17.209,13.108 17.209,12.046 C17.209,10.194 16.297,9.009 14.471,8.491 L14.471,8.491 ZM5.036,8.491 C4.494,8.343 4.222,8.083 4.222,7.713 C4.222,7.022 4.925,5.652 6.331,3.602 C6.874,2.812 7.145,2.120 7.145,1.528 C7.145,0.516 6.689,0.009 5.776,0.009 C5.234,0.009 4.642,0.404 4.000,1.194 C1.336,4.479 0.004,7.602 0.004,10.565 C0.004,12.021 0.411,13.256 1.225,14.269 C2.039,15.281 3.051,15.787 4.259,15.787 C5.246,15.787 6.078,15.429 6.757,14.713 C7.435,13.997 7.774,13.108 7.774,12.046 C7.774,10.194 6.862,9.009 5.036,8.491 L5.036,8.491 Z" class="cls-1"/>
</svg>
