<?xml version="1.0" encoding="UTF-8"?>
<svg width="1849px" height="867px" viewBox="0 0 1849 867" version="1.1" xmlns="http://www.w3.org/2000/svg" xmlns:xlink="http://www.w3.org/1999/xlink">
    <!-- Generator: Sketch 42 (36781) - http://www.bohemiancoding.com/sketch -->
    <title>digi . trade</title>
    <desc>Created with Sketch.</desc>
    <defs></defs>
    <g id="Page-1" stroke="none" stroke-width="1" fill="none" fill-rule="evenodd">
        <path d="M296.319919,159.721004 L296.737712,166.823488 L296.319919,173.925973 L295.902126,183.953009 L294.648746,190.637701 L291.724194,200.246944 L289.635228,206.931636 L287.128469,213.198534 L284.621709,219.883225 L282.11495,226.985709 L279.608191,233.252607 L275.012466,242.444058 L271.67012,247.875369 L265.821015,254.560061 L261.643083,259.155786 L254.540599,265.840477 L245.349148,275.031928 L239.917837,279.627653 L231.979766,285.894551 L226.548454,289.236897 L218.19259,293.832622 L212.761278,296.339381 L203.569828,299.681727 L197.30293,301.770693 L190.618239,303.441866 L183.933547,304.695245 L158.448162,308.455384 L152.181264,308.873177 L142.989813,309.708764 L136.305122,309.708764 L122.93574,309.29097 L112.073116,308.455384 L105.388425,308.455384 L92.0190427,309.29097 L81.5742126,309.708764 L74.4717281,310.126557 L68.2048301,309.708764 L38.9593059,309.708764 L32.6924078,309.29097 L14.7273001,307.619798 L11.3849544,305.948625 L9.29598843,303.859659 L8.46040202,299.263933 L8.04260882,292.579242 L8.46040202,289.236897 L9.29598843,276.703101 L9.29598843,270.853996 L9.71378163,261.244752 L9.71378163,254.977854 L10.1315748,248.293163 L10.1315748,241.608471 L9.71378163,219.465432 L9.71378163,212.78074 L8.87819523,190.637701 L9.29598843,184.370803 L9.71378163,175.179352 L10.549368,168.912454 L10.9671612,161.80997 L10.9671612,155.125278 L10.1315748,144.262655 L9.71378163,137.160171 L9.71378163,133.400032 L9.29598843,126.297547 L10.9671612,104.154508 L10.9671612,97.4698163 L10.549368,75.3267766 L10.549368,68.6420853 L9.29598843,46.4990456 L9.29598843,30.2051106 L9.71378163,23.5204194 L10.9671612,17.2535213 L11.8027477,12.6577961 L13.4739205,10.1510369 L18.0696457,8.89765727 L25.1721302,8.06207086 L31.4390282,7.22648445 L38.1237195,6.80869125 L74.8895213,7.22648445 L81.5742126,7.22648445 L101.628286,8.47986406 L104.970632,8.89765727 L112.49091,8.89765727 L130.038224,8.06207086 L136.305122,7.64427766 L142.989813,7.64427766 L153.434644,8.47986406 L166.804026,9.31545047 L173.488717,10.1510369 L184.351341,11.8222097 L191.036032,13.0755893 L197.30293,14.7467621 L212.343485,20.1780738 L218.610383,23.1026262 L224.877281,26.4449718 L230.726386,29.7873174 L244.513562,39.3965611 L249.944873,43.9922863 L254.958392,48.1702184 L264.149842,56.9438756 L268.327774,61.1218077 L272.087913,65.7175329 L275.012466,71.1488445 L279.608191,80.340295 L282.11495,86.6071931 L284.203916,93.2918843 L286.710675,99.9765756 L288.799641,106.661267 L290.470814,113.345958 L292.141987,122.537409 L293.395367,129.2221 L294.648746,136.324584 L295.484333,143.009275 L295.902126,153.036312 L296.319919,159.721004 Z M196.467343,210.691774 L201.480862,202.753704 L204.405414,196.486805 L206.912174,189.384321 L208.583346,183.117423 L210.254519,173.925973 L210.672312,168.076868 L211.090106,158.467624 L211.090106,145.098242 L210.672312,138.41355 L209.418933,128.804307 L207.74776,122.537409 L206.912174,120.030649 L203.569828,113.763751 L197.30293,104.990094 L195.213964,102.901128 L191.036032,98.3054027 L186.440307,93.7096775 L181.426788,89.9495387 L172.235338,84.518227 L166.386233,82.0114678 L160.537128,80.7580882 L153.852437,79.5047086 L143.407607,79.0869154 L136.305122,78.6691222 L125.860292,78.6691222 L116.668842,78.251329 L110.401944,78.6691222 L101.210493,79.9225018 L96.6147679,81.1758814 L94.5258019,83.2648474 L93.2724223,88.2783659 L92.8546291,92.0385047 L92.4368359,98.3054027 L93.2724223,110.839199 L93.6902155,117.52389 L94.5258019,126.715341 L95.3613883,133.400032 L95.7791815,140.084723 L95.7791815,146.769414 L95.3613883,155.960865 L95.3613883,176.014939 L94.9435951,183.117423 L94.5258019,189.802114 L93.6902155,198.993565 L93.6902155,204.84267 L93.2724223,214.451913 L93.6902155,220.718811 L94.9435951,230.745848 L96.6147679,235.341573 L99.1215271,237.430539 L104.135046,237.848333 L142.989813,235.341573 L152.599057,234.92378 L159.283748,233.670401 L166.386233,231.581435 L173.070924,229.074675 L179.337822,226.150123 L184.769134,222.389984 L192.289411,215.705293 L196.467343,210.691774 Z M423.329053,220.718811 L423.329053,184.370803 L424.164639,161.80997 L424.164639,155.125278 L423.746846,132.564445 L423.746846,125.879754 L424.164639,102.901128 L424.164639,96.2164367 L423.746846,73.6556038 L423.746846,32.7118698 L423.329053,26.0271786 L422.493466,15.1645553 L422.075673,10.5688301 L421.240087,8.06207086 L416.644362,7.22648445 L390.741183,7.22648445 L371.522696,8.06207086 L364.838004,8.06207086 L354.810967,7.64427766 L348.544069,8.06207086 L345.201724,8.06207086 L341.023792,8.47986406 L338.517033,10.1510369 L337.263653,14.7467621 L338.099239,37.7253883 L338.099239,73.6556038 L337.681446,96.2164367 L337.681446,102.901128 L338.099239,125.879754 L338.099239,161.80997 L338.517033,184.370803 L338.517033,191.055494 L339.770412,214.03412 L339.352619,220.718811 L338.099239,243.279644 L337.681446,249.964336 L338.934826,272.525168 L338.934826,278.792067 L339.352619,285.058965 L339.352619,291.743656 L340.188205,302.188486 L340.188205,306.366418 L341.441585,307.619798 L343.948344,308.455384 L364.838004,310.126557 L390.741183,310.126557 L412.048636,310.54435 L417.897741,310.126557 L421.240087,308.873177 L422.493466,306.784211 L422.493466,302.188486 L422.91126,279.20986 L422.91126,272.525168 L424.582432,249.964336 L424.582432,243.279644 L423.329053,220.718811 Z M765.919479,135.071205 L764.6661,129.2221 L763.830513,126.715341 L760.905961,125.044168 L754.639063,123.790788 L751.296717,123.372995 L744.612026,123.790788 L727.482505,125.879754 L720.797813,125.879754 L687.374357,123.790788 L660.217799,125.044168 L640.999312,125.044168 L633.896827,125.461961 L623.451997,126.715341 L618.438479,127.550927 L616.349513,129.639893 L615.096133,134.235618 L615.096133,143.009275 L615.931719,149.276174 L616.767306,161.80997 L616.349513,172.2548 L616.767306,178.939491 L617.185099,182.281837 L618.020685,187.295355 L619.691858,189.384321 L622.198617,190.219907 L636.403586,192.726667 L643.088278,193.14446 L652.697521,193.14446 L659.382213,192.726667 L668.991456,191.473287 L675.676148,191.055494 L685.703184,191.055494 L690.29891,191.89108 L691.970082,194.397839 L691.970082,201.500324 L692.805669,214.03412 L692.805669,220.301018 L692.387876,224.061157 L692.387876,228.656882 L691.134496,231.163641 L686.956564,234.088194 L680.689666,237.012746 L674.004975,239.519505 L651.444142,244.950817 L645.177244,246.204197 L638.492552,247.039783 L631.807861,247.039783 L624.705377,246.62199 L617.602892,245.786403 L605.069096,242.861851 L598.802198,240.355092 L590.446334,235.759367 L585.015022,231.581435 L577.494745,224.47895 L573.316813,219.465432 L568.303294,211.945154 L565.378742,206.096049 L561.20081,196.069012 L559.111844,189.384321 L557.022878,179.775077 L555.769498,173.090386 L554.933912,163.063349 L554.933912,155.960865 L555.351705,148.85838 L556.605085,142.173689 L559.111844,129.639893 L560.783017,123.372995 L562.871983,116.688304 L565.378742,110.421406 L568.721087,104.572301 L572.481226,99.1409892 L576.659158,93.7096775 L581.254884,89.1139523 L586.686195,84.9360202 L592.117507,81.1758814 L604.651303,75.3267766 L611.335994,73.6556038 L622.198617,72.8200174 L628.883309,72.4022242 L631.807861,72.4022242 L651.444142,73.6556038 L658.546626,74.9089834 L665.649111,76.5801562 L672.333802,79.0869154 L679.018493,82.0114678 L684.867598,85.3538134 L690.29891,88.6961591 L695.730221,92.4562979 L700.325946,95.3808503 L703.668292,94.9630571 L706.175051,93.2918843 L709.517397,90.7851251 L714.113122,87.4427795 L719.126641,83.2648474 L726.646918,76.5801562 L738.345128,64.8819465 L742.52306,60.2862213 L746.283199,54.8549096 L748.789958,51.0947708 L750.043338,48.1702184 L750.043338,45.2456659 L747.536578,42.3211135 L745.029819,40.2321475 L740.434094,36.8898019 L738.345128,34.8008359 L733.749403,31.4584902 L729.153678,28.5339378 L727.064711,27.2805582 L721.6334,23.5204194 L715.366502,19.7602805 L700.325946,12.2400029 L694.059048,10.1510369 L684.867598,7.22648445 L678.6007,5.55531164 L669.409249,3.88413883 L663.560145,2.63075922 L653.950901,1.37737961 L647.684003,0.959586406 L638.492552,0.124 L631.807861,0.541793203 L622.198617,1.37737961 L615.931719,2.21296602 L609.664821,3.46634563 L597.548819,5.13751844 L582.09047,7.64427766 L575.405779,9.31545047 L568.303294,11.4044165 L561.20081,14.3289689 L554.933912,18.0891077 L541.146736,26.0271786 L536.133218,29.3695242 L531.119699,33.1296631 L525.688388,37.3075951 L514.825764,46.4990456 L509.812246,51.0947708 L505.216521,56.1082892 L500.620795,61.5396009 L496.860657,66.5531193 L491.429345,74.073397 L488.504792,79.9225018 L485.58024,87.0249863 L482.655688,93.7096775 L480.566722,99.9765756 L478.477756,106.661267 L476.38879,113.763751 L474.299824,120.448443 L472.628651,127.550927 L471.375271,134.653411 L470.539685,137.995757 L469.286305,156.796451 L469.286305,163.063349 L469.704098,169.330247 L470.539685,176.014939 L472.210858,185.206389 L473.046444,191.89108 L474.299824,198.993565 L475.553203,205.678256 L477.642169,212.78074 L479.731135,219.465432 L482.655688,225.73233 L485.58024,232.417021 L496.02507,251.217715 L499.785209,257.06682 L504.380934,263.333718 L508.558866,268.347236 L515.243557,275.031928 L519.839283,279.20986 L524.852801,282.969999 L529.86632,287.147931 L535.297631,290.908069 L540.31115,294.668208 L548.667014,299.263933 L554.098325,302.188486 L562.454189,305.113038 L568.721087,307.202004 L574.987986,308.873177 L589.610748,313.051109 L595.877646,314.722282 L602.562337,315.975662 L609.247028,316.811248 L618.856272,317.646834 L631.807861,318.482421 L638.074759,318.064628 L654.786487,315.975662 L661.053385,314.722282 L666.90249,313.886696 L676.511734,312.633316 L682.778632,311.379936 L689.463323,310.126557 L695.730221,308.455384 L705.339465,305.530832 L711.18857,303.441866 L717.455468,300.935106 L725.811332,296.757174 L731.242644,293.414829 L734.167196,291.743656 L739.598508,287.983517 L742.105267,285.476758 L747.118785,280.881033 L754.22127,273.778548 L757.981409,268.347236 L761.323754,262.915925 L763.830513,258.737993 L764.248307,254.142268 L764.248307,229.492469 L765.083893,211.945154 L765.083893,172.672593 L766.755066,145.516035 L766.337273,138.41355 L765.919479,135.071205 Z M901.70227,220.718811 L901.70227,184.370803 L902.537857,161.80997 L902.537857,155.125278 L902.120064,132.564445 L902.120064,125.879754 L902.537857,102.901128 L902.537857,96.2164367 L902.120064,73.6556038 L902.120064,32.7118698 L901.70227,26.0271786 L900.866684,15.1645553 L900.448891,10.5688301 L899.613304,8.06207086 L895.017579,7.22648445 L869.114401,7.22648445 L849.895913,8.06207086 L843.211222,8.06207086 L833.184185,7.64427766 L826.917287,8.06207086 L823.574941,8.06207086 L819.397009,8.47986406 L816.89025,10.1510369 L815.636871,14.7467621 L816.472457,37.7253883 L816.472457,73.6556038 L816.054664,96.2164367 L816.054664,102.901128 L816.472457,125.879754 L816.472457,161.80997 L816.89025,184.370803 L816.89025,191.055494 L818.14363,214.03412 L817.725837,220.718811 L816.472457,243.279644 L816.054664,249.964336 L817.308043,272.525168 L817.308043,278.792067 L817.725837,285.058965 L817.725837,291.743656 L818.561423,302.188486 L818.561423,306.366418 L819.814803,307.619798 L822.321562,308.455384 L843.211222,310.126557 L869.114401,310.126557 L890.421854,310.54435 L896.270959,310.126557 L899.613304,308.873177 L900.866684,306.784211 L900.866684,302.188486 L901.284477,279.20986 L901.284477,272.525168 L902.95565,249.964336 L902.95565,243.279644 L901.70227,220.718811 Z M91.1834563,822.54992 L89.9300766,815.865229 L87.4233174,809.180538 L84.498765,803.331433 L79.9030398,798.317915 L74.4717281,794.139983 L69.0404165,790.379844 L63.1913116,787.037498 L56.9244136,784.530739 L49.4041359,783.277359 L39.3770991,783.277359 L33.110201,784.530739 L30.6034418,785.784119 L24.3365437,788.708671 L17.6518525,793.304396 L12.2205409,797.900121 L10.549368,799.989087 L6.78922921,804.584813 L5.5358496,807.091572 L2.61129718,812.10509 L1.77571077,815.029643 L0.104537961,820.460954 L0.104537961,831.741371 L1.35791757,837.590476 L2.19350398,840.097235 L4.7002632,845.528547 L5.95364281,848.035306 L9.71378163,852.631031 L11.3849544,855.13779 L16.8162661,859.315722 L23.5009573,863.075861 L30.1856486,865.164827 L33.110201,866.000414 L39.3770991,866.418207 L42.3016515,866.836 L49.8219291,866.836 L57.3422068,866.418207 L64.026898,865.58262 L70.2937961,863.493654 L76.1429009,860.151309 L81.5742126,855.13779 L85.3343514,849.288685 L88.2589038,843.021787 L90.3478698,836.337096 L91.6012495,829.652405 L91.1834563,822.54992 Z M544.906875,576.051931 L544.489082,569.785033 L544.489082,566.86048 L543.653495,561.846962 L541.564529,558.922409 L538.639977,557.251236 L533.626458,556.41565 L530.284113,555.997857 L523.181628,555.580064 L509.394453,556.41565 L478.477756,556.41565 L447.143265,556.833443 L440.458574,556.833443 L416.226568,556.41565 L385.309871,558.504616 L378.62518,558.504616 L353.975381,556.41565 L347.29069,556.41565 L323.058684,558.086823 L316.373993,558.086823 L300.915644,556.833443 L291.306401,556.833443 L287.128469,557.66903 L284.621709,558.922409 L282.950537,561.846962 L281.697157,567.278273 L281.279364,573.962965 L282.532743,589.839106 L282.532743,596.106004 L281.697157,608.6398 L282.11495,615.324492 L282.11495,618.249044 L282.950537,622.426976 L284.621709,624.933735 L287.128469,626.604908 L291.724194,627.440495 L295.066539,627.858288 L301.333437,627.858288 L310.942681,627.440495 L318.045166,627.022701 L325.14765,627.440495 L336.428067,628.276081 L343.948344,628.276081 L357.317727,627.440495 L363.584625,627.440495 L367.762557,628.276081 L369.015936,631.618427 L369.015936,637.467531 L369.851523,662.11733 L369.851523,693.869614 L370.269316,700.554305 L371.940489,725.621897 L371.940489,732.306589 L371.522696,756.956388 L371.522696,763.641079 L371.104902,788.708671 L371.104902,820.043161 L370.687109,826.727852 L369.43373,844.275167 L369.43373,851.377651 L370.269316,855.973377 L372.776075,857.226756 L377.789594,857.64455 L396.590288,858.897929 L403.274979,858.897929 L422.075673,857.64455 L429.178158,858.062343 L439.622988,859.315722 L447.561059,859.733516 L452.99237,858.897929 L455.081336,856.808963 L456.334716,851.795445 L455.916923,845.110753 L453.827957,826.310059 L453.410163,820.043161 L454.24575,795.393362 L454.24575,756.956388 L453.410163,732.306589 L453.827957,725.621897 L455.499129,700.554305 L455.916923,693.869614 L454.24575,668.802022 L454.24575,662.11733 L455.916923,637.467531 L456.334716,632.03622 L458.005889,629.529461 L462.183821,628.276081 L465.108373,627.858288 L471.375271,627.858288 L481.820101,628.693874 L488.504792,628.693874 L507.72328,627.440495 L514.407971,627.858288 L526.941767,629.111667 L533.626458,629.111667 L538.639977,628.276081 L541.146736,626.187115 L542.400116,623.262563 L543.235702,618.249044 L543.653495,614.906698 L544.071289,608.222007 L543.653495,595.688211 L544.071289,589.421313 L544.906875,576.051931 Z M866.607641,852.631031 L864.936469,856.39117 L859.505157,858.062343 L830.259633,858.062343 L807.281007,857.64455 L800.596315,857.64455 L781.795621,858.480136 L776.364309,858.480136 L772.604171,856.808963 L769.261825,853.466617 L755.892443,834.665923 L752.132304,829.652405 L738.762921,811.687297 L735.002782,806.673779 L723.304573,787.455291 L719.544434,782.441773 L706.175051,764.476665 L703.250499,761.13432 L700.74374,759.88094 L695.730221,759.463147 L682.360839,758.62756 L676.929527,759.045354 L673.587181,761.552113 L672.333802,766.983424 L671.498215,789.962051 L671.916009,796.646742 L673.587181,820.043161 L674.004975,826.727852 L674.422768,836.754889 L674.422768,843.439581 L674.004975,850.124272 L673.169388,855.13779 L671.080422,857.226756 L666.484697,858.480136 L659.800006,858.480136 L639.745932,857.226756 L620.527445,858.480136 L613.842753,858.480136 L594.624266,857.226756 L589.610748,856.39117 L587.103988,854.719997 L586.268402,850.542065 L585.850609,844.69296 L585.432816,838.426062 L586.268402,827.563439 L586.686195,820.878748 L588.357368,798.317915 L588.357368,791.633223 L587.103988,769.07239 L586.686195,762.387699 L586.268402,740.244659 L586.268402,733.559968 L587.521782,710.999135 L587.521782,704.314444 L586.268402,681.753611 L586.268402,675.06892 L587.521782,652.508087 L587.521782,645.823396 L588.357368,623.680356 L588.357368,616.995664 L587.939575,594.434832 L587.939575,587.75014 L587.103988,573.962965 L587.521782,567.696067 L587.939575,565.189307 L589.192954,559.757996 L591.699714,556.41565 L596.713232,555.16227 L600.055578,554.744477 L606.322476,554.326684 L625.12317,555.16227 L674.840561,556.833443 L703.250499,555.16227 L709.93519,555.16227 L737.509542,556.833443 L753.385683,556.833443 L760.488168,557.251236 L766.755066,558.504616 L775.528723,561.011375 L781.795621,563.100341 L788.062519,565.607101 L794.74721,568.11386 L801.014108,571.038412 L806.44542,574.380758 L814.383491,579.812069 L818.979216,583.572208 L823.157148,587.75014 L827.33508,592.763659 L833.184185,601.119523 L836.944324,606.550834 L841.957842,614.488905 L844.882395,620.33801 L847.806947,626.604908 L849.895913,633.289599 L851.149293,639.974291 L851.567086,646.658982 L852.402672,655.850432 L852.402672,662.535124 L851.984879,669.219815 L851.149293,676.322299 L849.895913,683.424784 L848.22474,690.109475 L845.717981,696.376373 L842.793429,702.643271 L839.03329,708.910169 L835.273151,714.341481 L831.513012,719.354999 L827.752873,723.950725 L821.068182,730.635416 L816.472457,734.395555 L808.116593,738.99128 L803.103074,741.915832 L797.671763,744.840385 L792.240451,746.093764 L788.898106,747.347144 L790.569278,750.68949 L805.609834,771.996943 L809.369973,777.010461 L824.410528,797.482328 L828.58846,802.495847 L843.629015,823.385507 L847.806947,828.399025 L860.758537,843.439581 L864.518675,848.035306 L866.607641,852.631031 Z M710.770777,697.21196 L738.345128,695.540787 L747.536578,693.869614 L752.96789,691.780648 L757.981409,688.856095 L762.159341,683.842577 L765.083893,677.575679 L766.755066,670.890988 L767.172859,664.206296 L766.755066,657.103812 L765.919479,650.001328 L764.248307,643.73443 L761.323754,637.467531 L757.563615,632.454013 L752.96789,628.693874 L747.118785,626.187115 L737.927335,624.098149 L731.242644,623.262563 L710.352983,622.844769 L703.668292,622.844769 L682.360839,624.098149 L677.34732,624.515942 L674.422768,625.769322 L671.916009,628.276081 L671.498215,632.871806 L671.916009,642.48105 L672.751595,649.165741 L673.587181,656.268226 L674.004975,663.37071 L673.169388,686.349336 L673.587181,690.945061 L674.422768,693.451821 L677.34732,694.7052 L682.360839,695.540787 L704.086085,697.21196 L710.770777,697.21196 Z M1222.56745,825.474473 L1230.92331,846.364133 L1232.17669,852.213238 L1229.25214,856.808963 L1224.65642,858.897929 L1219.2251,859.733516 L1213.376,859.733516 L1203.76676,858.897929 L1197.49986,858.480136 L1178.69916,858.480136 L1152.79599,860.151309 L1147.36467,858.480136 L1144.85791,855.13779 L1142.76895,850.542065 L1129.81736,815.447436 L1126.89281,811.269504 L1123.13267,810.433918 L1118.11915,810.016124 L1093.05156,808.344952 L1086.36687,808.344952 L1055.03238,807.509365 L1029.96478,807.091572 L1023.69789,807.091572 L1017.43099,807.509365 L998.2125,807.509365 L992.781189,808.344952 L989.438843,810.433918 L986.932084,815.447436 L977.32284,843.857374 L974.816081,850.542065 L970.220356,855.973377 L963.953458,858.480136 L957.268766,858.062343 L933.036761,856.808963 L926.352069,856.808963 L900.448891,858.480136 L895.017579,858.897929 L890.004061,856.39117 L886.661715,851.795445 L887.079508,846.364133 L887.915095,843.021787 L890.421854,836.337096 L896.270959,823.385507 L898.777718,817.118609 L909.222548,793.722189 L911.729307,787.873085 L922.591931,764.476665 L925.09869,758.209767 L934.707933,735.648934 L937.214693,729.382036 L948.495109,705.985617 L951.001868,700.136512 L966.042424,665.877469 L977.740633,640.809877 L980.665186,634.125186 L989.856636,615.324492 L992.781189,608.6398 L1000.71926,589.421313 L1003.22602,583.154415 L1010.7463,566.024894 L1012.83526,561.429168 L1017.01319,558.922409 L1023.28009,557.66903 L1042.49858,556.833443 L1075.08645,556.833443 L1094.30494,557.251236 L1101.40742,558.504616 L1106.00315,561.846962 L1108.09211,567.278273 L1113.94122,583.572208 L1116.44798,589.839106 L1126.89281,609.475387 L1129.39957,615.324492 L1138.59102,635.796359 L1141.09778,641.645463 L1148.61805,662.952917 L1151.12481,668.802022 L1160.31626,688.856095 L1162.82302,694.7052 L1172.01447,715.177067 L1174.52123,721.026172 L1182.8771,741.915832 L1185.38386,747.764937 L1198.33544,773.668116 L1208.36248,793.304396 L1211.28703,799.153501 L1222.56745,825.474473 Z M1090.12701,732.724382 L1091.38038,728.54645 L1089.70921,723.115138 L1080.51776,694.7052 L1078.4288,688.438302 L1070.07293,663.788503 L1067.98397,658.357192 L1063.80603,655.432639 L1058.37472,654.17926 L1053.779,655.432639 L1049.60106,659.610571 L1038.32065,688.020509 L1035.81389,694.287407 L1024.95127,722.279552 L1023.69789,728.54645 L1024.95127,733.559968 L1029.54699,735.648934 L1035.3961,736.484521 L1061.71707,736.484521 L1081.35335,737.7379 L1086.78466,736.066727 L1090.12701,732.724382 Z M1564.32229,708.074583 L1564.74008,715.177067 L1564.32229,722.279552 L1563.9045,732.306589 L1562.65112,738.99128 L1559.72657,748.600523 L1557.6376,755.285215 L1555.13084,761.552113 L1552.62408,768.236804 L1550.11732,775.339289 L1547.61056,781.606187 L1543.01484,790.797637 L1539.67249,796.228949 L1533.82339,802.91364 L1529.64545,807.509365 L1522.54297,814.194056 L1513.35152,823.385507 L1507.92021,827.981232 L1499.98214,834.24813 L1494.55083,837.590476 L1486.19496,842.186201 L1480.76365,844.69296 L1471.5722,848.035306 L1465.3053,850.124272 L1458.62061,851.795445 L1451.93592,853.048824 L1426.45053,856.808963 L1420.18364,857.226756 L1410.99219,858.062343 L1404.30749,858.062343 L1390.93811,857.64455 L1380.07549,856.808963 L1373.3908,856.808963 L1360.02141,857.64455 L1349.57658,858.062343 L1342.4741,858.480136 L1336.2072,858.062343 L1306.96168,858.062343 L1300.69478,857.64455 L1282.72967,855.973377 L1279.38733,854.302204 L1277.29836,852.213238 L1276.46277,847.617513 L1276.04498,840.932821 L1276.46277,837.590476 L1277.29836,825.05668 L1277.29836,819.207575 L1277.71615,809.598331 L1277.71615,803.331433 L1278.13395,796.646742 L1278.13395,789.962051 L1277.71615,767.819011 L1277.71615,761.13432 L1276.88057,738.99128 L1277.29836,732.724382 L1277.71615,723.532931 L1278.55174,717.266033 L1278.96953,710.163549 L1278.96953,703.478858 L1278.13395,692.616234 L1277.71615,685.51375 L1277.71615,681.753611 L1277.29836,674.651127 L1278.96953,652.508087 L1278.96953,645.823396 L1278.55174,623.680356 L1278.55174,616.995664 L1277.29836,594.852625 L1277.29836,578.55869 L1277.71615,571.873999 L1278.96953,565.607101 L1279.80512,561.011375 L1281.47629,558.504616 L1286.07202,557.251236 L1293.1745,556.41565 L1299.4414,555.580064 L1306.12609,555.16227 L1342.89189,555.580064 L1349.57658,555.580064 L1369.63066,556.833443 L1372.973,557.251236 L1380.49328,557.251236 L1398.0406,556.41565 L1404.30749,555.997857 L1410.99219,555.997857 L1421.43702,556.833443 L1434.8064,557.66903 L1441.49109,558.504616 L1452.35371,560.175789 L1459.0384,561.429168 L1465.3053,563.100341 L1480.34586,568.531653 L1486.61275,571.456205 L1492.87965,574.798551 L1498.72876,578.140897 L1512.51593,587.75014 L1517.94725,592.345866 L1522.96076,596.523798 L1532.15221,605.297455 L1536.33015,609.475387 L1540.09028,614.071112 L1543.01484,619.502424 L1547.61056,628.693874 L1550.11732,634.960772 L1552.20629,641.645463 L1554.71305,648.330155 L1556.80201,655.014846 L1558.47319,661.699537 L1560.14436,670.890988 L1561.39774,677.575679 L1562.65112,684.678163 L1563.4867,691.362855 L1563.9045,701.389892 L1564.32229,708.074583 Z M1464.46972,759.045354 L1469.48323,751.107283 L1472.40779,744.840385 L1474.91455,737.7379 L1476.58572,731.471002 L1478.25689,722.279552 L1478.67468,716.430447 L1479.09248,706.821203 L1479.09248,693.451821 L1478.67468,686.767129 L1477.4213,677.157886 L1475.75013,670.890988 L1474.91455,668.384228 L1471.5722,662.11733 L1465.3053,653.343673 L1463.21634,651.254707 L1459.0384,646.658982 L1454.44268,642.063257 L1449.42916,638.303118 L1440.23771,632.871806 L1434.3886,630.365047 L1428.5395,629.111667 L1421.85481,627.858288 L1411.40998,627.440495 L1404.30749,627.022701 L1393.86266,627.022701 L1384.67121,626.604908 L1378.40432,627.022701 L1369.21286,628.276081 L1364.61714,629.529461 L1362.52817,631.618427 L1361.27479,636.631945 L1360.857,640.392084 L1360.43921,646.658982 L1361.27479,659.192778 L1361.69259,665.877469 L1362.52817,675.06892 L1363.36376,681.753611 L1363.78155,688.438302 L1363.78155,695.122993 L1363.36376,704.314444 L1363.36376,724.368518 L1362.94597,731.471002 L1362.52817,738.155693 L1361.69259,747.347144 L1361.69259,753.196249 L1361.27479,762.805492 L1361.69259,769.07239 L1362.94597,779.099427 L1364.61714,783.695153 L1367.1239,785.784119 L1372.13742,786.201912 L1410.99219,783.695153 L1420.60143,783.277359 L1427.28612,782.02398 L1434.3886,779.935014 L1441.0733,777.428255 L1447.34019,774.503702 L1452.77151,770.743563 L1460.29178,764.058872 L1464.46972,759.045354 Z M1847.58608,795.811155 L1847.16829,791.21543 L1845.49712,788.708671 L1842.99036,787.455291 L1827.9498,785.784119 L1821.6829,785.366325 L1815.41601,785.366325 L1785.75269,787.037498 L1779.068,787.037498 L1749.40468,785.366325 L1726.84385,787.037498 L1720.15916,787.037498 L1697.18053,786.201912 L1692.5848,785.784119 L1690.91363,784.112946 L1689.66025,781.188393 L1689.24246,777.010461 L1689.24246,767.819011 L1689.66025,761.13432 L1690.91363,750.68949 L1691.33142,744.422591 L1692.5848,741.498039 L1694.67377,740.244659 L1699.68729,739.826866 L1706.78977,739.409073 L1723.5015,740.662453 L1730.18619,740.662453 L1756.92496,741.498039 L1790.34841,739.409073 L1797.0331,739.826866 L1815.8338,741.915832 L1824.18966,741.915832 L1828.3676,741.080246 L1831.29215,738.99128 L1832.96332,736.066727 L1833.79891,731.053209 L1834.63449,718.519413 L1833.79891,708.910169 L1833.79891,695.122993 L1833.38111,688.020509 L1832.54553,680.918025 L1832.12773,676.322299 L1830.87435,673.81554 L1828.3676,671.726574 L1823.77187,670.890988 L1810.82028,670.055401 L1764.02744,672.562161 L1724.33709,672.562161 L1710.9677,673.397747 L1697.59832,672.562161 L1693.0026,671.308781 L1691.33142,669.219815 L1690.49584,666.295262 L1690.07804,661.699537 L1689.66025,654.597053 L1689.66025,647.912362 L1690.49584,637.885325 L1691.33142,633.289599 L1691.74922,630.78284 L1693.83818,628.693874 L1698.01612,627.858288 L1701.35846,627.440495 L1707.62536,627.440495 L1726.42605,628.693874 L1748.1513,629.529461 L1754.83599,629.529461 L1776.14344,628.693874 L1782.82814,628.693874 L1822.1007,629.529461 L1828.78539,629.111667 L1832.12773,629.111667 L1837.14125,628.276081 L1839.23022,626.604908 L1840.90139,623.680356 L1841.73698,618.666837 L1842.15477,612.399939 L1841.73698,606.133041 L1841.31918,595.688211 L1841.31918,588.585727 L1842.15477,578.140897 L1842.15477,566.86048 L1841.31918,561.429168 L1840.4836,558.504616 L1837.97684,556.41565 L1832.12773,555.16227 L1821.6829,555.16227 L1807.47793,556.41565 L1800.37545,556.833443 L1743.55557,555.997857 L1736.87088,555.997857 L1711.80329,557.66903 L1705.1186,557.66903 L1680.05101,555.997857 L1673.36632,555.997857 L1647.88093,556.41565 L1620.72437,554.744477 L1615.29306,555.580064 L1611.95072,555.997857 L1609.86175,557.66903 L1608.60837,561.011375 L1608.19058,566.86048 L1606.9372,588.585727 L1606.9372,594.852625 L1606.10161,607.386421 L1606.10161,617.413458 L1606.5194,624.098149 L1607.77278,646.241189 L1608.19058,652.92588 L1606.5194,675.06892 L1606.5194,710.581342 L1605.68382,733.142175 L1606.10161,739.826866 L1607.35499,761.969906 L1607.77278,768.654597 L1607.35499,790.797637 L1607.35499,797.482328 L1605.68382,819.625368 L1605.68382,825.892266 L1605.26602,832.159164 L1605.68382,838.843855 L1606.5194,848.453099 L1607.35499,853.048824 L1608.60837,855.973377 L1611.53292,858.062343 L1616.54644,858.897929 L1630.75141,859.733516 L1666.68163,857.64455 L1673.36632,857.64455 L1695.09156,859.315722 L1723.91929,859.315722 L1730.60399,858.897929 L1752.32923,857.226756 L1759.01392,856.808963 L1781.15696,858.480136 L1787.84165,858.480136 L1842.57256,856.808963 L1844.66153,855.13779 L1846.3327,852.213238 L1846.7505,848.035306 L1848.42167,825.474473 L1848.83946,818.789782 L1847.58608,795.811155 Z" id="digi-.-trade" fill="#000000"></path>
    </g>
</svg>