<svg xmlns="http://www.w3.org/2000/svg" xmlns:xlink="http://www.w3.org/1999/xlink" width="20" height="16" viewBox="0 0 20 16"><defs><path id="2llna" d="M631.76 3189.62c-.61.27-1.27.46-1.97.54a3.45 3.45 0 0 0 1.51-1.9c-.66.39-1.4.68-2.18.83a3.43 3.43 0 0 0-5.86 3.14 9.77 9.77 0 0 1-7.1-3.6 3.42 3.42 0 0 0 1.07 4.6 3.42 3.42 0 0 1-1.56-.43v.04a3.44 3.44 0 0 0 2.76 3.37 3.45 3.45 0 0 1-1.55.06 3.44 3.44 0 0 0 3.21 2.39 6.9 6.9 0 0 1-5.09 1.42 9.74 9.74 0 0 0 5.27 1.55c6.33 0 9.79-5.24 9.79-9.79l-.01-.44a7 7 0 0 0 1.71-1.78z"/></defs><g><g transform="translate(-613 -3187)"><use fill="#fff" xlink:href="#2llna"/></g></g></svg>