<svg xmlns="http://www.w3.org/2000/svg" xmlns:xlink="http://www.w3.org/1999/xlink" width="815" height="459" viewBox="0 0 815 459"><defs><path id="iem8a" d="M688.78 287.85c26.54 25.9 54.55 50.28 78.35 78.8 10.51 12.68 20.47 25.75 28.08 40.46 10.79 20.91 1.02 43.92-17.73 45.17l-116.54-.06c-30.06 2.5-54.04-9.6-74.2-30.15-16.14-16.44-31.08-33.93-46.6-50.92-6.36-6.94-13.02-13.48-20.97-18.64-15.91-10.33-29.72-7.17-38.81 9.43-9.26 16.87-11.36 35.56-12.27 54.37-1.25 27.44-9.55 34.66-37.11 35.91-58.91 2.78-114.83-6.13-166.77-35.85-45.79-26.2-81.3-63.19-112.2-105.06C91.82 229.78 45.73 140.2 4.31 48.08-5 27.33 1.82 16.2 24.72 15.8c38.01-.74 76.03-.68 114.1-.05 15.45.22 25.68 9.09 31.64 23.69 20.57 50.57 45.74 98.7 77.34 143.3 8.4 11.87 16.99 23.74 29.2 32.1 13.52 9.26 23.81 6.19 30.17-8.87 4.03-9.54 5.8-19.82 6.71-30.05 3.01-35.17 3.4-70.29-1.87-105.34-3.25-21.87-15.57-36.04-37.4-40.18-11.14-2.1-9.48-6.25-4.09-12.6C279.9 6.82 288.7 0 306.26 0h131.72c20.73 4.1 25.34 13.4 28.18 34.27l.1 146.3c-.22 8.08 4.04 32.05 18.6 37.4 11.64 3.8 19.31-5.52 26.3-12.9 31.53-33.47 54.04-73.02 74.15-113.98 8.92-18 16.6-36.71 24.03-55.4 5.5-13.87 14.15-20.69 29.77-20.39l126.77.12c3.76 0 7.56.05 11.2.67 21.36 3.64 27.22 12.83 20.62 33.7-10.4 32.72-30.62 59.99-50.4 87.38-21.14 29.26-43.75 57.5-64.71 86.93-19.26 26.87-17.73 40.41 6.2 63.75z"/></defs><g><g transform="translate(7 2)"><use xlink:href="#iem8a"/></g></g></svg>