<?xml version="1.0" encoding="utf-8"?><svg xmlns="http://www.w3.org/2000/svg" xmlns:xlink="http://www.w3.org/1999/xlink"><symbol viewBox="0 0 469 444" id="adaptive-desktop" xmlns="http://www.w3.org/2000/svg"><defs><style>.aacls-1{fill-rule:evenodd}</style></defs><path class="aacls-1" d="M432.5 0h-395A37.543 37.543 0 0 0 0 37.5v300A37.543 37.543 0 0 0 37.5 375h145v55H130a7.5 7.5 0 0 0 0 15h210a7.5 7.5 0 0 0 0-15h-52.5v-55h145a37.543 37.543 0 0 0 37.5-37.5v-300A37.543 37.543 0 0 0 432.5 0zm-160 430h-75v-55h75v55zM455 337.5a22.526 22.526 0 0 1-22.5 22.5h-395A22.526 22.526 0 0 1 15 337.5V315h440v22.5zm0-37.5H15V37.5A22.526 22.526 0 0 1 37.5 15h395A22.526 22.526 0 0 1 455 37.5V300zM432.5 30h-395a7.5 7.5 0 0 0-7.5 7.5v240a7.5 7.5 0 0 0 7.5 7.5h325a7.5 7.5 0 0 0 0-15H45V45h380v225h-32.5a7.5 7.5 0 0 0 0 15h40a7.5 7.5 0 0 0 7.5-7.5v-240a7.5 7.5 0 0 0-7.5-7.5z"/></symbol><symbol viewBox="0 0 60 60" id="adaptive-phone" xmlns="http://www.w3.org/2000/svg"><defs><style>.abcls-1{fill-rule:evenodd}</style></defs><path id="abForma_1" data-name="Forma 1" class="abcls-1" d="M17 49a4 4 0 1 0 4 4 4 4 0 0 0-4-4zm0 6a2 2 0 1 1 2-2 2 2 0 0 1-2 2zM13 5h4a1 1 0 0 0 0-2h-4a1 1 0 0 0 0 2zm7 0h1a1 1 0 0 0 0-2h-1a1 1 0 0 0 0 2zm34 42a1 1 0 0 0-2 0v1a1 1 0 0 0 2 0v-1zm0-12a1 1 0 0 0-2 0v1a1 1 0 0 0 2 0v-1zm0 8a1 1 0 0 0-2 0v1a1 1 0 0 0 2 0v-1zm0-4a1 1 0 0 0-2 0v1a1 1 0 0 0 2 0v-1zm0-8a1 1 0 0 0-2 0v1a1 1 0 0 0 2 0v-1zm0 20a1 1 0 0 0-2 0v1a1 1 0 0 0 2 0v-1zm-1 3a1 1 0 0 0-1 1v1a1 1 0 0 0 2 0v-1a1 1 0 0 0-1-1zm-14.957 4h-.994a1 1 0 0 0 0 2h.994a1 1 0 1 0 0-2zm-3.974 0h-.792v-.009a4.357 4.357 0 0 0 .324-.6c.023-.051.046-.1.067-.152s.043-.089.06-.136a.9.9 0 0 0 .017-.114A4.293 4.293 0 0 0 34 55.6V28.857a.975.975 0 0 0 0-1.7V4.405A4.411 4.411 0 0 0 29.6 0H4.405A4.411 4.411 0 0 0 0 4.405v51.189A4.411 4.411 0 0 0 4.405 60h25.689a.982.982 0 0 0 .422-.1 4.364 4.364 0 0 0 1.6-.7.988.988 0 0 0 .961.8h.994a1 1 0 0 0-.002-2zM2 8h30v38H2V8zm2.405-6h25.189A2.408 2.408 0 0 1 32 4.405V6H2V4.405A2.408 2.408 0 0 1 4.405 2zM29.6 58H4.405A2.408 2.408 0 0 1 2 55.6V48h30v7.594A2.415 2.415 0 0 1 29.6 58zm12.423 0h-.999a1 1 0 0 0 0 2h.994a1 1 0 0 0 0-2zm3.425-29a1 1 0 0 0 0-2h-.999a1 1 0 0 0 0 2h.994zm-7.949 0a1 1 0 0 0 0-2H36.5a1 1 0 0 0 0 2h.994zm8.5 29H45a1 1 0 1 0 0 2h.994a1 1 0 0 0-.002-2zm-4.531-29a1 1 0 0 0 0-2h-.994a1 1 0 1 0 0 2h.994zM53.94 58h-.994a1 1 0 0 0 0 2h.994a1 1 0 0 0 0-2zM59 41.729a1 1 0 0 0-1 1v.994a1 1 0 0 0 2 0v-.994a1 1 0 0 0-1-1zm0 7.949a1 1 0 0 0-1 1v.993a1 1 0 0 0 2 0v-.993a1 1 0 0 0-1-1zm0-3.978a1 1 0 0 0-1 1v1a1 1 0 0 0 2 0v-1a1 1 0 0 0-1-1zm0-7.949a1 1 0 0 0-1 1v.994a1 1 0 0 0 2 0v-.991a1 1 0 0 0-1-1zm.933-7.118a1 1 0 0 0-1.97.347 2.453 2.453 0 0 1 .037.422v.398a1 1 0 1 0 2 0v-.395a4.5 4.5 0 0 0-.067-.769zM49.417 29a1 1 0 0 0 0-2h-.994a1 1 0 0 0 0 2h.994zM59 33.78a1 1 0 0 0-1 1v.993a1 1 0 0 0 2 0v-.993a1 1 0 0 0-1-1zM53.391 29a1 1 0 0 0 0-2H52.4a1 1 0 1 0 0 2h.994zm-3.425 29h-.994a1 1 0 0 0 0 2h.994a1 1 0 1 0 0-2zm6.822-28.683a1 1 0 1 0 1-1.734 4.367 4.367 0 0 0-1.2-.469 1 1 0 0 0-.447 1.949 2.375 2.375 0 0 1 .647.254zM59 53.651a1 1 0 0 0-1 1v.993a.98.98 0 0 0 1 .976 1.022 1.022 0 0 0 1-1.02v-.948a1 1 0 0 0-1-1.001zm-1.892 3.813a2.37 2.37 0 0 1-.6.357 1 1 0 1 0 .759 1.85 4.432 4.432 0 0 0 1.1-.654 1 1 0 0 0-1.259-1.553zm-5.49-36.541a.986.986 0 0 0 .764 0 1.014 1.014 0 0 0 .326-.216l6-6a1 1 0 0 0-1.414-1.414L53 17.586V15A13.015 13.015 0 0 0 40 2a1 1 0 0 0 0 2 11.013 11.013 0 0 1 11 11v2.586l-4.293-4.293a1 1 0 0 0-1.414 1.414l6 6a1.014 1.014 0 0 0 .325.216z"/></symbol><symbol viewBox="0 0 183 220" id="adaptive-tablet" xmlns="http://www.w3.org/2000/svg"><defs><style>.accls-1{fill-rule:evenodd}</style></defs><path class="accls-1" d="M184 12.008A12.027 12.027 0 0 0 171.98 0H12.02A12.027 12.027 0 0 0 0 12.008v155.984a11.861 11.861 0 0 0 1.209 5.153A3.977 3.977 0 0 0 0 176v32a12.023 12.023 0 0 0 12.02 12h159.96A12.023 12.023 0 0 0 184 208v-32a3.977 3.977 0 0 0-1.209-2.855 11.867 11.867 0 0 0 1.209-5.153V12.008zM176 208a4.015 4.015 0 0 1-4.02 4H12.02A3.968 3.968 0 0 1 8 208v-28h168v28zm0-40.008a4.019 4.019 0 0 1-4.02 4.008H12.02A4.019 4.019 0 0 1 8 167.992V12.008A4.019 4.019 0 0 1 12.02 8h159.96a4.019 4.019 0 0 1 4.02 4.008v155.984zM52 18.344L57.656 24 26.7 54.953 21.047 49.3zM25.084 80.573l-5.656-5.656L80 14.345 85.656 20zM92 184a12 12 0 1 0 12 12 12.013 12.013 0 0 0-12-12zm0 16a4 4 0 1 1 4-4 4 4 0 0 1-4 4z"/></symbol><symbol viewBox="0 0 408 408" id="arrow" xmlns="http://www.w3.org/2000/svg"><path d="M204 102V0l204 204-204 204V306H0V102z"/></symbol><symbol viewBox="0 0 69 51" id="arrow-2" xmlns="http://www.w3.org/2000/svg"><defs><path id="aea" d="M1262.44 3561.7c-.9-.94-2.4-.94-3.32 0a2.4 2.4 0 0 0 0 3.34l16.86 17.08h-55.65a2.33 2.33 0 0 0-2.33 2.36c0 1.32 1.03 2.4 2.33 2.4h55.65l-16.86 17.04c-.9.95-.9 2.47 0 3.37.93.95 2.43.95 3.32 0l20.86-21.12c.93-.91.93-2.43 0-3.34z"/></defs><use xlink:href="#aea" transform="translate(-1217 -3559)"/></symbol><symbol viewBox="0 0 13 13" id="arrow-3" xmlns="http://www.w3.org/2000/svg"><defs><path id="afa" d="M191.73 201.1c-.13-.18-.36-.18-.5 0a.55.55 0 0 0 0 .64l2.56 3.28h-8.44c-.2 0-.35.2-.35.45 0 .26.16.46.35.46h8.44l-2.56 3.28a.56.56 0 0 0 0 .64c.14.18.37.18.5 0l3.16-4.05a.54.54 0 0 0 0-.64z"/></defs><use fill="#fff" xlink:href="#afa" transform="translate(-184 -199)"/></symbol><symbol viewBox="0 0 18 18" id="browser-menu" xmlns="http://www.w3.org/2000/svg"><defs><path id="aga" d="M848 823v-3h14v3zm0 6v-3h14v3zm0 6v-3h14v3z"/></defs><use fill="#b3b3b3" xlink:href="#aga" transform="translate(-846 -818)"/></symbol><symbol viewBox="0 0 58.8 59" id="calendar" xmlns="http://www.w3.org/2000/svg"><path d="M52.6 54H1.2C.6 54 0 53.4 0 52.7v-46c0-.7.6-1.2 1.2-1.2h51.3c.7 0 1.2.6 1.2 1.2v46c.1.7-.4 1.3-1.1 1.3zM2.5 51.5h48.8V8H2.5v43.5z"/><path d="M57.6 59H6.3c-.7 0-1.3-.6-1.3-1.3s.6-1.2 1.2-1.2h50.1V11.8c0-.7.6-1.2 1.2-1.2s1.2.6 1.2 1.2v46c.1.6-.4 1.2-1.1 1.2z"/><path d="M52.6 18H1.2C.6 18 0 17.4 0 16.7s.6-1.2 1.2-1.2h51.3c.7 0 1.2.6 1.2 1.2s-.4 1.3-1.1 1.3zm-29.4 8.9h-3.3c-.9 0-1.6-.7-1.6-1.6 0-.9.7-1.6 1.6-1.6h3.3c.9 0 1.6.7 1.6 1.6 0 .9-.7 1.6-1.6 1.6zm10.8 0h-3.3c-.9 0-1.6-.7-1.6-1.6 0-.9.7-1.6 1.6-1.6H34c.9 0 1.6.7 1.6 1.6-.1.9-.8 1.6-1.6 1.6zm10.7 0h-3.3c-.9 0-1.6-.7-1.6-1.6 0-.9.7-1.6 1.6-1.6h3.3c.9 0 1.6.7 1.6 1.6 0 .9-.7 1.6-1.6 1.6zm-32.2 7.7H9.1c-.9 0-1.6-.7-1.6-1.6 0-.9.7-1.6 1.6-1.6h3.3c.9 0 1.6.7 1.6 1.6 0 .9-.7 1.6-1.5 1.6zm10.7 0h-3.3c-.9 0-1.6-.7-1.6-1.6 0-.9.7-1.6 1.6-1.6h3.3c.9 0 1.6.7 1.6 1.6 0 .9-.7 1.6-1.6 1.6zm10.8 0h-3.3c-.9 0-1.6-.7-1.6-1.6 0-.9.7-1.6 1.6-1.6H34c.9 0 1.6.7 1.6 1.6-.1.9-.8 1.6-1.6 1.6zm10.7 0h-3.3c-.9 0-1.6-.7-1.6-1.6 0-.9.7-1.6 1.6-1.6h3.3c.9 0 1.6.7 1.6 1.6 0 .9-.7 1.6-1.6 1.6zM12.5 42.2H9.1c-.9 0-1.6-.7-1.6-1.6 0-.9.7-1.6 1.6-1.6h3.3c.9 0 1.6.7 1.6 1.6 0 .9-.7 1.6-1.5 1.6zm10.7 0h-3.3c-.9 0-1.6-.7-1.6-1.6 0-.9.7-1.6 1.6-1.6h3.3c.9 0 1.6.7 1.6 1.6 0 .9-.7 1.6-1.6 1.6zm10.8 0h-3.3c-.9 0-1.6-.7-1.6-1.6 0-.9.7-1.6 1.6-1.6H34c.9 0 1.6.7 1.6 1.6-.1.9-.8 1.6-1.6 1.6zM10.8 13.8c-.7 0-1.2-.6-1.2-1.2V1.3c0-.7.6-1.2 1.2-1.2S12 .6 12 1.3v11.2c0 .7-.5 1.3-1.2 1.3zm32.2 0c-.7 0-1.2-.6-1.2-1.2V1.3c0-.7.6-1.3 1.2-1.3s1.2.6 1.2 1.2v11.2c.1.8-.5 1.4-1.2 1.4z"/></symbol><symbol viewBox="-3 5 17 15" id="checked" xmlns="http://www.w3.org/2000/svg"><desc>Generated with Avocode.</desc><path d="M1.8 11.2c-.2-.2-.6-.3-.9 0-.2.2-.2.6 0 .9l3 3c.1.1.3.2.4.2.2 0 .3-.1.4-.2l9-8.9c.2-.2.2-.6 0-.9-.2-.2-.6-.2-.9 0L9.6 8.5C7.1 5.4 2.6 5-.5 7.5c-1 .8-1.8 1.9-2.2 3.1-1.2 3.6.6 9.6 6.7 9.6 5 0 7.3-4.3 7.2-7.2 0-.3-.3-.6-.6-.6s-.6.3-.6.6c0 3.3-2.7 5.9-6 5.9h-.4c-3.3-.3-5.7-3.1-5.4-6.4.1-1.3.6-2.6 1.5-3.5 2.3-2.4 6-2.5 8.4-.2l.6.6-4.5 4.5-2.4-2.7z"/></symbol><symbol viewBox="0 0 256 256" id="chevron" xmlns="http://www.w3.org/2000/svg"><path d="M225.813 48.907L128 146.72 30.187 48.907 0 79.093l128 128 128-128z"/></symbol><symbol viewBox="0 0 22 22" id="close" xmlns="http://www.w3.org/2000/svg"><defs><style>.akcls-1{fill:#fff;fill-rule:evenodd}</style></defs><path id="akForma_1" data-name="Forma 1" class="akcls-1" d="M1210.94 301l-9.74 9.808a.7.7 0 0 0 0 .986.673.673 0 0 0 .49.205.689.689 0 0 0 .49-.205l9.81-9.882 9.82 9.882a.688.688 0 0 0 .98 0 .7.7 0 0 0 0-.986l-9.74-9.808 9.75-9.816a.7.7 0 0 0 0-.986.69.69 0 0 0-.98 0l-9.83 9.889-9.82-9.889a.69.69 0 0 0-.98 0 .7.7 0 0 0 0 .987z" transform="translate(-1201 -290)"/></symbol><symbol viewBox="0 0 68.5 57.7" id="devices" xmlns="http://www.w3.org/2000/svg"><path d="M18.1 57.7H4.2c-2.3 0-4.2-1.9-4.2-4.2V23.7c0-2.3 1.9-4.2 4.2-4.2h13.9c2.3 0 4.2 1.9 4.2 4.2v29.8c.1 2.3-1.8 4.2-4.2 4.2zM4.2 21.9c-1 0-1.7.8-1.7 1.8v29.8c0 1 .8 1.8 1.7 1.8h13.9c1 0 1.8-.8 1.8-1.8V23.7c0-1-.8-1.8-1.8-1.8H4.2z"/><path d="M64.2 45.1H21.1c-.7 0-1.2-.6-1.2-1.2s.6-1.2 1.2-1.2h43.1c1 0 1.8-.8 1.8-1.8V4.2c0-1-.8-1.8-1.8-1.8h-53c-1 0-1.8.8-1.8 1.8v15.5c0 .7-.6 1.2-1.2 1.2S7 20.4 7 19.8V4.2C7 1.9 8.9 0 11.3 0h53c2.3 0 4.2 1.9 4.2 4.2v36.6c0 2.4-1.9 4.3-4.3 4.3zm-43.1 4.8H1.2c-.7 0-1.2-.6-1.2-1.2s.6-1.2 1.2-1.2h19.9c.7 0 1.2.6 1.2 1.2s-.5 1.2-1.2 1.2z"/><path d="M66.6 36.2H21.1c-.7 0-1.2-.6-1.2-1.2s.6-1.2 1.2-1.2h45.5c.7 0 1.2.6 1.2 1.2s-.5 1.2-1.2 1.2zM47.7 51H27.8c-.7 0-1.2-.6-1.2-1.2s.6-1.2 1.2-1.2h19.9c.7 0 1.2.6 1.2 1.2s-.5 1.2-1.2 1.2z"/></symbol><symbol viewBox="0 0 49 62" id="doc" xmlns="http://www.w3.org/2000/svg"><defs><path id="ama" d="M37 23a1 1 0 0 1-1 1H11a1 1 0 1 1 0-2h25a1 1 0 0 1 1 1zm-27-8a1 1 0 0 1 1-1h10a1 1 0 1 1 0 2H11a1 1 0 0 1-1-1zm27 16a1 1 0 0 1-1 1H11a1 1 0 1 1 0-2h25a1 1 0 0 1 1 1zm0 8a1 1 0 0 1-1 1H11a1 1 0 1 1 0-2h25a1 1 0 0 1 1 1zm0 8a1 1 0 0 1-1 1H11a1 1 0 1 1 0-2h25a1 1 0 0 1 1 1zm10-32.41V60H0V0h32.41zM33 14h10.59L33 3.41zm12 44V16H31V2H2v56z"/></defs><use xlink:href="#ama" transform="translate(1 1)"/></symbol><symbol viewBox="0 0 54 100" id="facebook" xmlns="http://www.w3.org/2000/svg"><defs><path id="ana" d="M50.04.02L37.57 0C23.56 0 14.5 9.27 14.5 23.63v10.89H1.96C.88 34.52 0 35.4 0 36.48v15.78c0 1.08.88 1.96 1.96 1.96H14.5v39.82c0 1.09.88 1.96 1.96 1.96h16.36c1.09 0 1.96-.88 1.96-1.96V54.22h14.67c1.08 0 1.96-.88 1.96-1.96V36.48a1.96 1.96 0 0 0-1.96-1.96H34.8v-9.24c0-4.43 1.06-6.69 6.85-6.69h8.4c1.08 0 1.96-.88 1.96-1.96V1.98A1.978 1.978 0 0 0 50.04.02z"/></defs><use xlink:href="#ana" transform="translate(1 2)"/></symbol><symbol viewBox="0 0 300 300" id="gradient" xmlns="http://www.w3.org/2000/svg"><defs><linearGradient id="aoa" gradientUnits="userSpaceOnUse" x1="-9.15%" y1="34.15%" x2="109.15%" y2="65.85%"><stop stop-color="#e12390"/><stop offset=".53" stop-color="#441f67"/><stop offset="1" stop-color="#2866a4"/></linearGradient></defs><rect width="100%" height="100%" fill="url(#aoa)"/></symbol><symbol viewBox="0 0 82.8 63.3" id="hands" xmlns="http://www.w3.org/2000/svg"><path d="M46.9 62.9c-1 0-2-.4-2.8-1.1l-.9-.9c-.7-.7-1.1-1.7-1.1-2.8s.4-2 1.1-2.8l8.6-8.6c.5-.5 1.3-.5 1.8 0s.5 1.3 0 1.8L45 57.1c-.3.3-.4.6-.4 1s.1.7.4 1l.9.9c.5.5 1.4.6 2 0l14.4-14.4c.5-.5 1.3-.5 1.8 0s.5 1.3 0 1.8L49.7 61.8c-.8.7-1.8 1.1-2.8 1.1zm27.3-32.1c-1.1 0-2.2-.4-3-1.2L54.8 13.1c-1.7-1.7-1.7-4.4 0-6l4.3-4.3c1.7-1.7 4.4-1.7 6 0l16.4 16.4c.8.8 1.2 1.9 1.2 3s-.4 2.2-1.2 3l-4.3 4.3c-.8.8-1.8 1.3-3 1.3zM62.1 4.1c-.4 0-.9.2-1.2.5l-4.3 4.3c-.7.7-.7 1.8 0 2.5L73 27.7c.7.7 1.8.7 2.5 0l4.3-4.3c.3-.3.5-.8.5-1.2 0-.5-.2-.9-.5-1.2L63.4 4.6c-.4-.3-.8-.5-1.3-.5z"/><path d="M37.1 63.3c-1 0-2-.4-2.8-1.1l-.9-.9c-1.5-1.5-1.5-4 0-5.5L44 45.1c.5-.5 1.3-.5 1.8 0s.5 1.3 0 1.8L35.2 57.5c-.5.5-.5 1.4 0 2l.9.9c.5.5 1.5.5 2 0L52.5 46c.5-.5 1.3-.5 1.8 0s.5 1.3 0 1.8L39.9 62.2c-.8.7-1.7 1.1-2.8 1.1z"/><path d="M29.4 61.7c-1 0-2-.4-2.8-1.1l-.9-.9c-.7-.7-1.1-1.7-1.1-2.8s.4-2 1.1-2.8l14.4-14.4c.5-.5 1.3-.5 1.8 0s.5 1.3 0 1.8L27.4 55.8c-.3.3-.4.6-.4 1s.1.7.4 1l.9.9c.5.5 1.4.5 2 0l14.4-14.4c.5-.5 1.3-.5 1.8 0s.5 1.3 0 1.8L32.1 60.5c-.7.8-1.7 1.2-2.7 1.2z"/><path d="M27 54.6c-1 0-2-.4-2.8-1.1l-.9-.9c-.7-.7-1.1-1.7-1.1-2.8s.4-2 1.1-2.8l14.4-14.4c.5-.5 1.3-.5 1.8 0s.5 1.3 0 1.8L25.1 48.8c-.3.3-.4.6-.4 1s.1.7.4 1l.9.9c.5.5 1.5.5 2 0l14.4-14.4c.5-.5 1.3-.5 1.8 0s.5 1.3 0 1.8L29.8 53.5c-.8.7-1.8 1.1-2.8 1.1zm36.2-6.9c-.2 0-.5-.1-.7-.2-.6-.4-.8-1.1-.4-1.7l10.4-16.3c.4-.6 1.1-.8 1.7-.4.6.4.8 1.1.4 1.7L64.3 47.1c-.3.4-.7.6-1.1.6zM54 18.6c-.3 0-.6-.1-.9-.4-.5-.5-.5-1.3 0-1.8l3.4-3.5c.5-.5 1.3-.5 1.8 0s.5 1.3 0 1.8l-3.4 3.5c-.3.3-.6.4-.9.4z"/><path d="M35.8 37.5c-.3 0-.6-.1-.9-.3-.5-.5-.5-1.3-.1-1.8l10.5-11.3c.5-.5 1.3-.5 1.8-.1.5.5.5 1.3.1 1.8L36.7 37.1c-.2.3-.6.4-.9.4zM8.5 29.2c-1.1 0-2.2-.4-3-1.2l-4.3-4.3c-.8-.8-1.2-1.9-1.2-3s.4-2.2 1.2-3L17.6 1.2c1.7-1.7 4.4-1.7 6 0l4.3 4.3c.8.8 1.2 1.9 1.2 3s-.4 2.2-1.2 3L11.5 27.9c-.8.8-1.9 1.3-3 1.3zM20.6 2.5c-.5 0-.9.2-1.2.5L3 19.4c-.7.7-.7 1.8 0 2.5l4.3 4.3c.7.7 1.8.7 2.5 0L26.1 9.8c.3-.3.5-.8.5-1.2s-.2-.9-.5-1.2L21.9 3c-.4-.3-.8-.5-1.3-.5z"/><path d="M50.8 25.6H34.3c-.7 0-1.2-.6-1.2-1.2s.6-1.2 1.2-1.2h16.5c.8 0 1.4-1 1.4-2.2v-1.7c0-1.2-.7-2.2-1.4-2.2h-22c-.7 0-1.2-.6-1.2-1.3 0-.7.6-1.2 1.2-1.2h22c2.2 0 3.9 2.1 3.9 4.7V21c0 2.5-1.8 4.6-3.9 4.6zM21.9 48.8c-.4 0-.7-.1-.9-.4l-2.3-2.7-.1-.1L8.1 29.2c-.4-.6-.2-1.4.4-1.7.6-.4 1.4-.2 1.7.4l10.4 16.2 2.3 2.6c.5.5.4 1.3-.1 1.8-.4.2-.6.3-.9.3z"/><path d="M28.8 17c-.3 0-.6-.1-.9-.4l-3.4-3.5c-.5-.5-.5-1.3 0-1.8s1.3-.5 1.8 0l3.4 3.5c.5.5.5 1.3 0 1.8-.3.3-.6.4-.9.4zm12.5 13.5c-.3 0-.6-.1-.9-.3l-5.3-5c-.5-.5-.5-1.3 0-1.8s1.3-.5 1.8 0l5.3 5c.5.5.5 1.3 0 1.8-.3.2-.6.3-.9.3z"/></symbol><symbol viewBox="0 0 69.6 58.6" id="hearts" xmlns="http://www.w3.org/2000/svg"><path d="M38.3 54.6c-.2 0-.4 0-.6-.1-.1-.1-3.6-1.6-8.3-4.5-.6-.4-.8-1.1-.4-1.7.4-.6 1.1-.8 1.7-.4 3.5 2.2 6.4 3.6 7.5 4.1C41.9 50.3 67 37.8 67 16.8c0-7.9-6.2-14.3-13.8-14.3-6.7 0-13.6 3.7-13.8 12 0 .7-.6 1.2-1.2 1.2s-1.2-.5-1.2-1.2c-.2-8.3-7-12-13.8-12-7.6 0-13.8 6.4-13.8 14.3 0 3.3.6 6.6 1.8 9.7.2.6-.1 1.4-.7 1.6-.5.3-1.2-.1-1.5-.7-1.3-3.4-2-7-2-10.6C7 7.5 14.3 0 23.3 0c7.2 0 12.7 3.3 15 8.6 2.3-5.3 7.8-8.6 15-8.6 9 0 16.3 7.5 16.3 16.8 0 10.1-5.3 19.8-15.5 28.1-7.6 6.2-15 9.4-15.3 9.6-.1 0-.3.1-.5.1z"/><path d="M18.4 58.6c-.2 0-.4 0-.5-.1-.8-.3-17.9-7.8-17.9-22 0-5.5 4.4-10 9.8-10 3.8 0 6.9 1.6 8.5 4.3 1.6-2.7 4.7-4.3 8.5-4.3 5.4 0 9.8 4.5 9.8 10.1 0 14.1-17.1 21.6-17.8 21.9-.1 0-.3.1-.4.1zm0-1.3zM9.8 29c-4 0-7.3 3.4-7.3 7.6 0 11.3 13.1 18.1 15.8 19.4 2.7-1.3 15.8-8.1 15.8-19.4 0-4.2-3.3-7.6-7.3-7.6-3.3 0-7.2 1.6-7.3 6.3 0 .7-.6 1.2-1.2 1.2s-1.2-.5-1.2-1.2c-.1-4.7-4-6.3-7.3-6.3zm48.5-16c-.7 0-1.2-.6-1.2-1.2 0-.3-1.4-1.4-4.4-1.4s-4.4 1.1-4.4 1.4c0 .7-.6 1.2-1.2 1.2s-1.2-.6-1.2-1.2c0-2.3 2.9-3.9 6.9-3.9s6.9 1.6 6.9 3.9c-.1.7-.7 1.2-1.4 1.2z"/></symbol><symbol viewBox="0 0 173 173" id="instagram" xmlns="http://www.w3.org/2000/svg"><defs><path id="ara" d="M169 46.64v75.72A46.7 46.7 0 0 1 122.36 169H46.64A46.69 46.69 0 0 1 0 122.36V46.64A46.7 46.7 0 0 1 46.64 0h75.72A46.7 46.7 0 0 1 169 46.64zm-15 75.72V46.64a31.68 31.68 0 0 0-31.64-31.65H46.64a31.68 31.68 0 0 0-31.65 31.65v75.72a31.68 31.68 0 0 0 31.65 31.65h75.72a31.68 31.68 0 0 0 31.65-31.65zM128.05 84.5a43.6 43.6 0 0 1-43.55 43.55A43.6 43.6 0 0 1 40.95 84.5 43.6 43.6 0 0 1 84.5 40.95a43.6 43.6 0 0 1 43.55 43.55zm-15 0A28.58 28.58 0 0 0 84.5 55.95 28.58 28.58 0 0 0 55.95 84.5a28.58 28.58 0 0 0 28.55 28.55 28.58 28.58 0 0 0 28.55-28.55zm24.6-53.04a11.04 11.04 0 0 1 0 15.55 11.1 11.1 0 0 1-7.78 3.22c-2.89 0-5.73-1.18-7.76-3.22a11.09 11.09 0 0 1-3.23-7.77 11.05 11.05 0 0 1 11-11c2.9 0 5.73 1.17 7.77 3.22z"/></defs><use xlink:href="#ara" transform="translate(2 2)"/></symbol><symbol viewBox="0 0 30 23" id="mail" xmlns="http://www.w3.org/2000/svg"><defs><path id="asa" d="M1061 438.67c0 .58-.16 1.12-.42 1.6l-8.2-9.42 8.11-7.29c.32.52.51 1.12.51 1.77zm-24.3-16.25c.46-.26.99-.42 1.55-.42h19.5c.56 0 1.09.16 1.55.42l-11.3 10.14zm22.76 19.07c-.5.32-1.08.51-1.71.51h-19.5c-.63 0-1.22-.2-1.71-.51l8.3-9.54 2.63 2.34a.8.8 0 0 0 1.06 0l2.62-2.34zm-15.83-10.64l-8.21 9.42a3.36 3.36 0 0 1-.42-1.6v-13.34c0-.65.19-1.25.5-1.77z"/></defs><use xlink:href="#asa" transform="translate(-1033 -420)"/></symbol><symbol preserveAspectRatio="xMidYMid" viewBox="0 0 45 45" id="menu" xmlns="http://www.w3.org/2000/svg"><defs><style>.atcls-1{fill:#fff;fill-rule:evenodd}</style></defs><path d="M22.5 45C10.094 45 0 34.906 0 22.5 0 10.093 10.094 0 22.5 0S45 10.093 45 22.5C45 34.906 34.906 45 22.5 45zm0-43.393C10.979 1.607 1.607 10.98 1.607 22.5c0 11.52 9.372 20.893 20.893 20.893S43.393 34.02 43.393 22.5c0-11.52-9.372-20.893-20.893-20.893zm9.643 30.536H12.857a.803.803 0 0 1 0-1.608h19.286a.804.804 0 0 1 0 1.608zm0-8.839H12.857a.803.803 0 0 1 0-1.608h19.286a.803.803 0 0 1 0 1.608zm0-8.84H12.857a.802.802 0 1 1 0-1.607h19.286a.803.803 0 0 1 0 1.607z" class="atcls-1"/></symbol><symbol viewBox="0 0 47 42" id="palm" xmlns="http://www.w3.org/2000/svg"><defs><path id="aua" d="M1123.41 1771l-7.78 4.7a1.08 1.08 0 0 1-1.47-.37c-.31-.5-.15-1.17.36-1.48l7.82-4.74.06-.03c.18-.1 4.43-2.26 8.31-1.08l7.86 2.38c.42.12.71.5.76.93.13 1.4-.6 3.64-3.12 4.04-2.55.41-6.47.17-6.64.16a1.07 1.07 0 0 1 .13-2.14c.04 0 3.86.23 6.17-.13.62-.1 1-.39 1.2-.9l.04-.14-7.01-2.14c-2.93-.88-6.35.76-6.69.94zm33.16-1.36l-15.55 11.42a7 7 0 0 1-5.21 1.26l-12.53-2-2.92 2.43a1.07 1.07 0 0 1-1.5-.13 1.07 1.07 0 0 1 .13-1.52l3.29-2.75c.24-.2.55-.28.85-.23l13 2.08c1.27.2 2.58-.12 3.62-.88l14.57-10.7-.04-.03c-.57-.35-1.22-.35-2 0-2.72 1.2-8.5 4-8.57 4.03-.52.26-1.17.03-1.43-.5a1.07 1.07 0 0 1 .5-1.44c.07-.02 5.88-2.83 8.64-4.06a4.08 4.08 0 0 1 5.45 1.64c.26.48.12 1.06-.3 1.38zm-24-4.45a6.28 6.28 0 0 1 4.43-10.7 6.28 6.28 0 0 1 0 12.53 6.23 6.23 0 0 1-4.42-1.83zm1.53-1.51a4.07 4.07 0 0 0 5.8 0 4.13 4.13 0 0 0-2.9-7.03c-1.1 0-2.12.43-2.9 1.2a4.13 4.13 0 0 0 0 5.83zm6.79-10.33a4.9 4.9 0 0 1 3.45-8.35 4.9 4.9 0 0 1 0 9.78c-1.3 0-2.53-.5-3.45-1.43zm1.52-1.51a2.72 2.72 0 0 0 3.88 0 2.76 2.76 0 0 0-1.94-4.69c-.73 0-1.42.29-1.94.8a2.76 2.76 0 0 0 0 3.89z"/></defs><use xlink:href="#aua" transform="translate(-1112 -1743)"/></symbol><symbol viewBox="0 0 25 25" id="pdf" xmlns="http://www.w3.org/2000/svg"><defs><path id="ava" d="M422 7635.25v14.06c0 .93-.77 1.69-1.72 1.69h-12.85a1.7 1.7 0 0 1-1.72-1.7v-3.8h-3.43c-.7 0-1.28-.57-1.28-1.27v-6.35c0-.7.58-1.26 1.28-1.26h3.43v-5.93c0-.93.77-1.69 1.72-1.69h8.46c.12 0 .23.05.31.13l5.68 5.82c.08.08.12.19.12.3zm-6-.33h4.66l-4.66-4.78zm-2.14 9.73c.23 0 .43-.19.43-.42v-6.35c0-.23-.2-.42-.43-.42h-11.58a.42.42 0 0 0-.42.42v6.35c0 .23.19.42.42.42zm7.28 4.66v-13.54h-5.57a.43.43 0 0 1-.43-.42v-5.5h-7.7a.86.86 0 0 0-.87.84v5.93h7.29c.7 0 1.28.56 1.28 1.26v6.35c0 .7-.57 1.27-1.28 1.27h-7.29v3.8c0 .47.39.85.86.85h12.85c.48 0 .86-.38.86-.84zm-14.8-8.86c0 .22-.04.4-.13.56a1 1 0 0 1-.3.36c-.14.08-.26.14-.4.17-.17.03-.43.05-.77.05h-.48v1.37h-.74v-3.63h1.19c.45 0 .75.02.88.05.21.06.4.18.53.36.15.18.22.42.22.7zm-.77 0a.47.47 0 0 0-.12-.32.52.52 0 0 0-.3-.16 3.6 3.6 0 0 0-.53-.03h-.36v1.03h.4c.3 0 .5-.02.6-.05a.48.48 0 0 0 .32-.46zm4.46.73c0 .3-.04.56-.11.77-.1.27-.23.48-.4.64-.13.13-.3.23-.52.3-.16.05-.38.07-.66.07h-1.4v-3.63h1.36c.31 0 .54.02.7.07.22.06.4.17.56.33.15.16.27.36.35.6.08.22.12.5.12.85zm-.77-.03c0-.28-.02-.5-.07-.65a.83.83 0 0 0-.21-.35.7.7 0 0 0-.35-.17c-.1-.03-.3-.04-.6-.04h-.34v2.4h.55c.21 0 .36 0 .45-.03a.68.68 0 0 0 .3-.15.77.77 0 0 0 .2-.35c.05-.16.07-.38.07-.66zm2.15-1.2v.85h1.54v.62h-1.54v1.54h-.74v-3.63h2.52v.61z"/></defs><use xlink:href="#ava" transform="translate(-399 -7627)"/></symbol><symbol viewBox="0 0 42 43" id="phone" xmlns="http://www.w3.org/2000/svg"><defs><path id="awa" d="M948.45 1772.7a4 4 0 0 1 1.24 2.82c0 1.01-.42 2-1.21 2.85-.35.37-.7.72-1.05 1.06-.5.5-.99.97-1.4 1.49l-.04.04a6 6 0 0 1-5.14 2.02c-2.76-.18-5.23-1.24-7.08-2.14a37.98 37.98 0 0 1-12.6-10.1 35.62 35.62 0 0 1-6.16-10.5 14.73 14.73 0 0 1-1.03-6.1 6.08 6.08 0 0 1 1.75-3.83l2.73-2.83.02-.01a3.9 3.9 0 0 1 2.73-1.21c.99 0 1.92.42 2.7 1.2.52.5 1.03 1.03 1.51 1.54l.75.78 2.2 2.25c1.68 1.72 1.68 3.96 0 5.7-.23.22-.46.46-.68.7-.6.6-1.2 1.25-1.87 1.87.5 1.11 1.17 2.2 2.17 3.5a27.86 27.86 0 0 0 6.62 6.18c.24.15.5.29.8.43l.62.33 2.54-2.59a3.84 3.84 0 0 1 2.75-1.27c1 0 1.94.45 2.72 1.28zm-1.54 1.55l-4.43-4.54-.02-.01c-.25-.28-.66-.6-1.16-.6-.5 0-.94.33-1.21.61l-2.75 2.82a1.7 1.7 0 0 1-1.22.57c-.27 0-.53-.07-.8-.2l-.1-.07c-.23-.14-.5-.28-.8-.43-.31-.17-.65-.34-.98-.55a29.78 29.78 0 0 1-7.14-6.65l-.01-.01a18.13 18.13 0 0 1-2.62-4.41c-.15-.47-.28-1.16.42-1.87 0-.02.02-.03.04-.04.7-.65 1.34-1.3 2.01-2.01l.7-.71c.85-.87.85-1.68 0-2.55l-2.2-2.25-.76-.8c-.5-.52-.96-1-1.45-1.47l-.03-.03c-.25-.26-.66-.57-1.17-.57-.41 0-.83.2-1.22.58l-2.74 2.8a3.82 3.82 0 0 0-1.11 2.45 12 12 0 0 0 .9 5.16 33.59 33.59 0 0 0 5.79 9.87 35.86 35.86 0 0 0 11.87 9.51c1.66.82 3.88 1.77 6.27 1.93h.37c1.25 0 2.21-.41 3.02-1.3.5-.6 1.03-1.14 1.56-1.65l.98-1c-.01 0-.01 0 0 0 .82-.88.82-1.74-.01-2.58zm-13.27-22.26c.1-.6.66-1 1.25-.9 2.55.44 4.88 1.68 6.72 3.56a12.8 12.8 0 0 1 3.48 6.88c.1.6-.3 1.18-.9 1.28l-.18.02c-.52 0-.98-.38-1.07-.93a10.58 10.58 0 0 0-2.88-5.68 10.12 10.12 0 0 0-5.54-2.94 1.1 1.1 0 0 1-.88-1.29zm17.46 10.48l-.19.02c-.52 0-.98-.38-1.07-.92a18.8 18.8 0 0 0-5.12-10.12 18.14 18.14 0 0 0-9.88-5.24c-.6-.11-1-.68-.9-1.29.11-.6.66-1.01 1.25-.9 4.2.73 8.02 2.75 11.06 5.87a21.06 21.06 0 0 1 5.73 11.31c.1.6-.3 1.18-.88 1.27z"/></defs><use xlink:href="#awa" transform="translate(-912 -1742)"/></symbol><symbol viewBox="0 0 24 23" id="phone-2" xmlns="http://www.w3.org/2000/svg"><defs><path id="axa" d="M738.99 437.78c.04.33-.06.61-.3.85l-2.81 2.8a2.06 2.06 0 0 1-1.5.57 9.76 9.76 0 0 1-3.5-.82c-.88-.36-1.86-.9-2.96-1.62-1.1-.72-2.28-1.7-3.52-2.96-.99-.98-1.8-1.9-2.45-2.8a19.92 19.92 0 0 1-1.57-2.47 13.3 13.3 0 0 1-1.3-3.64 5.25 5.25 0 0 1-.06-1.47 2.06 2.06 0 0 1 .55-1.1l2.82-2.82c.2-.2.42-.3.68-.3.18 0 .34.05.49.16.14.1.26.24.36.4l2.26 4.3c.13.22.16.46.1.73-.05.27-.17.5-.35.68l-1.04 1.04a.35.35 0 0 0-.07.14.52.52 0 0 0-.04.16c.06.3.19.63.38 1.01.17.34.43.75.79 1.24.35.49.85 1.05 1.5 1.69.64.65 1.2 1.15 1.7 1.51.49.36.9.63 1.23.8.34.17.59.27.77.3l.26.06a.5.5 0 0 0 .14-.04l.14-.07 1.2-1.23c.26-.22.55-.34.9-.34.23 0 .42.04.56.13h.02l4.1 2.41c.29.19.46.42.52.7z"/></defs><use xlink:href="#axa" transform="translate(-717 -420)"/></symbol><symbol viewBox="0 0 21 29" id="pin" xmlns="http://www.w3.org/2000/svg"><defs><path id="aya" d="M738 370.42c0 6.44-8.5 15.9-8.86 16.3a.86.86 0 0 1-1.28 0c-.36-.4-8.86-9.86-8.86-16.3 0-5.2 4.26-9.42 9.5-9.42s9.5 4.22 9.5 9.42zm-4.72 0a4.76 4.76 0 0 0-4.78-4.74 4.76 4.76 0 0 0-4.78 4.74 4.76 4.76 0 0 0 4.78 4.73 4.76 4.76 0 0 0 4.78-4.73z"/></defs><use xlink:href="#aya" transform="translate(-718 -360)"/></symbol><symbol id="play-2" viewBox="0 0 14.7 22" xmlns="http://www.w3.org/2000/svg"><style>.azst0{fill:none;stroke:#444;stroke-width:2;stroke-linecap:square;stroke-miterlimit:10}</style><path class="azst0" d="M1 20V2l12 9z"/></symbol><symbol viewBox="0 0 54.5 55.8" id="promotion" xmlns="http://www.w3.org/2000/svg"><path d="M1.3 55.8c-.7 0-1.2-.6-1.2-1.2V5.7C0 5 .6 4.4 1.3 4.4s1.2.6 1.2 1.3v48.8c0 .7-.6 1.3-1.2 1.3z"/><path d="M53.2 55.8h-52c-.7 0-1.2-.6-1.2-1.2s.6-1.2 1.2-1.2h52c.7 0 1.2.6 1.2 1.2s-.5 1.2-1.2 1.2zm-38.8-6.6h-4.1C8.5 49.2 7 47.7 7 46V32.7c0-1.8 1.5-3.2 3.2-3.2h4.1c1.8 0 3.3 1.5 3.3 3.2V46c0 1.7-1.4 3.2-3.2 3.2zm-4.1-17.3c-.4 0-.8.3-.8.8V46c0 .4.3.8.8.8h4.1c.4 0 .8-.3.8-.8V32.7c0-.4-.3-.8-.8-.8h-4.1zm18.5 17.3h-4.1c-1.8 0-3.2-1.5-3.2-3.2V24.9c0-1.8 1.5-3.2 3.2-3.2h4.1c1.8 0 3.2 1.5 3.2 3.2V46c0 1.7-1.4 3.2-3.2 3.2zm-4.1-25.1c-.4 0-.8.3-.8.8V46c0 .4.3.8.8.8h4.1c.4 0 .8-.3.8-.8V24.9c0-.4-.3-.8-.8-.8h-4.1zm18.4 25.1H39c-1.8 0-3.2-1.5-3.2-3.2V17c0-1.8 1.5-3.2 3.2-3.2h4.1c1.8 0 3.2 1.5 3.2 3.2v29c.1 1.7-1.4 3.2-3.2 3.2zM39 16.3c-.4 0-.8.3-.8.8V46c0 .4.3.8.8.8h4.1c.4 0 .8-.3.8-.8V17c0-.4-.3-.8-.8-.8H39zM8.3 25.1c-.7 0-1.2-.5-1.2-1.2s.5-1.3 1.2-1.3c.2 0 18.6-1.3 32.8-19.9.4-.5 1.2-.7 1.8-.2.5.4.7 1.2.2 1.8C28 23.8 9.2 25.1 8.3 25.1z"/><path d="M44.3 6.4c-.6 0-1.1-.4-1.2-1l-.5-2.6-2.6.5c-.7.1-1.3-.3-1.4-1-.1-.7.3-1.3 1-1.4l3.8-.9c.3 0 .6 0 .9.2.3.2.5.5.5.8l.7 3.9c.1.7-.3 1.3-1 1.4-.1.1-.2.1-.2.1z"/></symbol><symbol preserveAspectRatio="xMidYMid" viewBox="0 0 17.219 15.78" id="quote" xmlns="http://www.w3.org/2000/svg"><path d="M14.471 8.491c-.542-.148-.814-.408-.814-.778 0-.691.703-2.061 2.109-4.111.518-.741.777-1.432.777-2.074 0-1.012-.456-1.519-1.369-1.519-.542 0-1.134.395-1.776 1.185-2.639 3.26-3.959 6.384-3.959 9.371 0 1.456.407 2.691 1.221 3.704.814 1.012 1.826 1.518 3.034 1.518.987 0 1.819-.358 2.498-1.074.678-.716 1.017-1.605 1.017-2.667 0-1.852-.912-3.037-2.738-3.555zm-9.435 0c-.542-.148-.814-.408-.814-.778 0-.691.703-2.061 2.109-4.111.543-.79.814-1.482.814-2.074C7.145.516 6.689.009 5.776.009 5.234.009 4.642.404 4 1.194 1.336 4.479.004 7.602.004 10.565c0 1.456.407 2.691 1.221 3.704.814 1.012 1.826 1.518 3.034 1.518.987 0 1.819-.358 2.498-1.074.678-.716 1.017-1.605 1.017-2.667 0-1.852-.912-3.037-2.738-3.555z" class="bbcls-1"/></symbol><symbol viewBox="0 0 16 14" id="refresh" xmlns="http://www.w3.org/2000/svg"><defs><path id="bca" d="M206.65 821c3.08 0 5.58 2.6 5.65 5.85h1.7l-2.54 3-2.55-3h1.98a4.36 4.36 0 0 0-4.24-4.35c-2.34 0-4.24 2.01-4.24 4.5s1.9 4.5 4.24 4.5c.94 0 1.8-.32 2.51-.87l.97 1.1a5.43 5.43 0 0 1-3.48 1.27c-3.12 0-5.65-2.69-5.65-6s2.53-6 5.65-6z"/></defs><use fill="#b3b3b3" xlink:href="#bca" transform="translate(-200 -820)"/></symbol><symbol viewBox="0 0 1849 867" id="site-logo" xmlns="http://www.w3.org/2000/svg"><title>digi . trade</title><path d="M296.32 159.721l.418 7.102-.418 7.103-.418 10.027-1.253 6.685-2.925 9.609-2.089 6.685-2.507 6.267-2.506 6.684-2.507 7.103-2.507 6.267-4.596 9.191-3.342 5.431-5.849 6.685-4.178 4.596-7.102 6.684-9.192 9.192-5.431 4.596-7.938 6.267-5.432 3.342-8.355 4.596-5.432 2.506-9.191 3.343-6.267 2.089-6.685 1.67-6.684 1.254-25.486 3.76-6.267.418-9.191.836h-6.685l-13.37-.418-10.862-.836h-6.685l-13.369.836-10.445.418-7.102.418-6.267-.418H38.959l-6.267-.418-17.965-1.671-3.342-1.671-2.089-2.09-.836-4.595-.417-6.685.417-3.342.836-12.534v-5.849l.418-9.61v-6.266l.418-6.685v-6.685l-.418-22.143v-6.684l-.836-22.143.418-6.267.418-9.192.835-6.267.418-7.102v-6.685l-.835-10.862-.418-7.103v-3.76l-.418-7.102 1.671-22.143V97.47l-.418-22.143v-6.685L9.296 46.5V30.205l.418-6.685 1.253-6.266.836-4.596 1.67-2.507 4.597-1.253 7.102-.836 6.267-.836 6.685-.417 36.766.417h6.684l20.054 1.254 3.343.418h7.52l17.547-.836 6.267-.418h6.685l10.445.836 13.369.835 6.685.836 10.862 1.671 6.685 1.254 6.267 1.67 15.04 5.432 6.267 2.925 6.267 3.342 5.85 3.342 13.787 9.61 5.43 4.595 5.014 4.178 9.192 8.774 4.178 4.178 3.76 4.596 2.924 5.43 4.596 9.192 2.507 6.267 2.089 6.685 2.507 6.685 2.089 6.684 1.67 6.685 1.672 9.191 1.253 6.685 1.254 7.103.835 6.684.418 10.027.418 6.685zm-99.853 50.97l5.014-7.937 2.924-6.267 2.507-7.103 1.671-6.267 1.672-9.191.417-5.85.418-9.608v-13.37l-.418-6.684-1.253-9.61-1.671-6.267-.836-2.506-3.342-6.267-6.267-8.774-2.089-2.089-4.178-4.596-4.596-4.595-5.013-3.76-9.192-5.432-5.849-2.507-5.849-1.253-6.685-1.253-10.444-.418-7.103-.418H125.86l-9.191-.418-6.267.418-9.192 1.254-4.595 1.253-2.09 2.089-1.253 5.013-.417 3.76-.418 6.267.835 12.534.418 6.685.836 9.191.835 6.685.418 6.685v6.684l-.418 9.192v20.054l-.417 7.102-.418 6.685-.836 9.192v5.849l-.418 9.609.418 6.267 1.254 10.027 1.67 4.596 2.508 2.089 5.013.417 38.855-2.506 9.61-.418 6.684-1.254 7.102-2.089 6.685-2.506 6.267-2.925 5.431-3.76 7.52-6.685 4.178-5.013zM423.33 220.72v-36.35l.836-22.561v-6.685l-.418-22.56v-6.685l.418-22.979v-6.685l-.418-22.56V32.712l-.418-6.685-.836-10.862-.417-4.596-.836-2.507-4.596-.836h-25.903l-19.218.836h-6.685l-10.027-.418-6.267.418h-3.342l-4.178.418-2.507 1.671-1.253 4.596.835 22.978v35.93l-.418 22.561v6.685l.418 22.979v35.93l.418 22.56v6.685l1.253 22.98-.417 6.684-1.254 22.56-.418 6.685 1.254 22.561v6.267l.418 6.267v6.685l.835 10.444v4.178l1.254 1.254 2.506.835 20.89 1.672h25.903l21.308.417 5.849-.417 3.342-1.254 1.253-2.089v-4.596l.418-22.978v-6.685l1.671-22.56v-6.685l-1.253-22.561zm342.59-85.648l-1.253-5.849-.835-2.507-2.925-1.67-6.267-1.254-3.342-.418-6.685.418-17.13 2.089h-6.684l-33.424-2.09-27.156 1.254H641l-7.102.418-10.445 1.253-5.014.836-2.088 2.089-1.254 4.596v8.773l.836 6.267.835 12.534-.417 10.445.417 6.684.418 3.343.836 5.013 1.67 2.09 2.508.835 14.205 2.507 6.684.417h9.61l6.684-.417 9.61-1.254 6.684-.418h10.027l4.596.836 1.671 2.507v7.102l.836 12.534v6.267l-.418 3.76v4.596l-1.254 2.507-4.177 2.924-6.267 2.925-6.685 2.507-22.56 5.43-6.268 1.254-6.684.836h-6.685l-7.103-.418-7.102-.836-12.534-2.924-6.267-2.507-8.356-4.596-5.431-4.178-7.52-7.102-4.178-5.014-5.014-7.52-2.924-5.849-4.178-10.027-2.09-6.685-2.088-9.609-1.254-6.685-.835-10.027v-7.102l.418-7.103 1.253-6.684 2.507-12.534 1.671-6.267 2.089-6.685 2.507-6.267 3.342-5.849 3.76-5.431 4.178-5.431 4.596-4.596 5.431-4.178 5.432-3.76 12.533-5.85 6.685-1.67 10.863-.836 6.684-.418h2.925l19.636 1.254 7.103 1.253 7.102 1.671 6.685 2.507 6.684 2.924 5.85 3.343 5.43 3.342 5.432 3.76 4.596 2.925 3.342-.418 2.507-1.671 3.342-2.507 4.596-3.342 5.014-4.178 7.52-6.685 11.698-11.698 4.178-4.596 3.76-5.431 2.507-3.76 1.253-2.925v-2.924l-2.506-2.925-2.507-2.089-4.596-3.342-2.089-2.09-4.596-3.342-4.595-2.924-2.09-1.253-5.43-3.76-6.267-3.76-15.041-7.521-6.267-2.089-9.191-2.925-6.267-1.67-9.192-1.672-5.849-1.253-9.61-1.254-6.266-.417-9.191-.836-6.685.418-9.61.835-6.266.836-6.267 1.253-12.116 1.672-15.459 2.506-6.684 1.671-7.103 2.09-7.102 2.924-6.267 3.76-13.787 7.938-5.014 3.343-5.013 3.76-5.432 4.178-10.862 9.191-5.014 4.596-4.595 5.013-4.596 5.432-3.76 5.013-5.432 7.52-2.924 5.85-2.925 7.102-2.924 6.685-2.09 6.267-2.088 6.684-2.09 7.103-2.088 6.684-1.671 7.103-1.254 7.102-.835 3.343-1.254 18.8v6.267l.418 6.267.836 6.685 1.67 9.191.836 6.685 1.254 7.103 1.253 6.684 2.09 7.103 2.088 6.684 2.925 6.267 2.924 6.685 10.445 18.8 3.76 5.85 4.596 6.267 4.178 5.013 6.685 6.685 4.595 4.178 5.014 3.76 5.013 4.178 5.432 3.76 5.013 3.76 8.356 4.596 5.431 2.924 8.356 2.925 6.267 2.089 6.267 1.671 14.623 4.178 6.267 1.671 6.684 1.254 6.685.835 9.61.836 12.95.835 6.268-.417 16.711-2.09 6.267-1.253 5.85-.835 9.609-1.254 6.267-1.253 6.684-1.253 6.267-1.672 9.61-2.924 5.849-2.09 6.266-2.506 8.356-4.178 5.432-3.342 2.924-1.671 5.432-3.76 2.506-2.507 5.014-4.596 7.102-7.102 3.76-5.432 3.343-5.431 2.507-4.178.417-4.596v-24.65l.836-17.547v-39.272l1.671-27.157-.418-7.102-.418-3.343zm135.783 85.648v-36.35l.836-22.561v-6.685l-.418-22.56v-6.685l.418-22.979v-6.685l-.418-22.56V32.712l-.418-6.685-.835-10.862-.418-4.596-.836-2.507-4.595-.836h-25.904l-19.218.836h-6.685l-10.027-.418-6.267.418h-3.342l-4.178.418-2.507 1.671-1.253 4.596.835 22.978v35.93l-.417 22.561v6.685l.417 22.979v35.93l.418 22.56v6.685l1.254 22.98-.418 6.684-1.254 22.56-.417 6.685 1.253 22.561v6.267l.418 6.267v6.685l.835 10.444v4.178l1.254 1.254 2.507.835 20.89 1.672h25.902l21.308.417 5.849-.417 3.342-1.254 1.254-2.089v-4.596l.417-22.978v-6.685l1.672-22.56v-6.685l-1.254-22.561zM91.183 822.549l-1.253-6.684-2.507-6.684-2.924-5.85-4.596-5.013-5.431-4.178-5.432-3.76-5.849-3.343-6.267-2.506-7.52-1.254H39.377l-6.267 1.254-2.507 1.253-6.266 2.925-6.685 4.595-5.431 4.596-1.672 2.09-3.76 4.595-1.253 2.507-2.925 5.013-.835 2.925-1.671 5.431v11.28l1.253 5.85.836 2.506L4.7 845.53l1.254 2.506 3.76 4.596 1.671 2.507 5.431 4.178 6.685 3.76 6.685 2.089 2.924.835 6.267.418 2.925.418h7.52l7.52-.418 6.685-.835 6.267-2.09 5.849-3.342 5.431-5.013 3.76-5.85 2.925-6.266 2.089-6.685 1.253-6.685-.418-7.102zm453.724-246.497l-.418-6.267v-2.925l-.836-5.013-2.088-2.925-2.925-1.67-5.014-.836-3.342-.418-7.102-.418-13.788.836h-30.916l-31.335.417h-6.684l-24.232-.417-30.917 2.089h-6.685l-24.65-2.09h-6.684l-24.232 1.672h-6.685l-15.458-1.254h-9.61l-4.178.836-2.506 1.253-1.671 2.925-1.254 5.431-.418 6.685 1.254 15.876v6.267l-.836 12.534.418 6.684v2.925l.836 4.178 1.67 2.507 2.507 1.67 4.596.836 3.343.418h6.266l9.61-.418 7.102-.417 7.103.417 11.28.836h7.52l13.37-.836h6.267l4.178.836 1.253 3.342v5.85l.836 24.65v31.752l.417 6.684 1.671 25.068v6.685l-.417 24.65v6.684l-.418 25.068v31.334l-.418 6.685-1.253 17.547v7.103l.835 4.595 2.507 1.254 5.014.418 18.8 1.253h6.685l18.8-1.253 7.103.417 10.445 1.254 7.938.418 5.431-.836 2.09-2.089 1.253-5.014-.418-6.684-2.089-18.8-.418-6.268.836-24.65v-38.437l-.836-24.65.418-6.684 1.671-25.068.418-6.684-1.671-25.068v-6.685l1.67-24.65.419-5.43 1.67-2.508 4.179-1.253 2.924-.418h6.267l10.445.836h6.685l19.218-1.254 6.685.418 12.534 1.254h6.684l5.014-.836 2.507-2.089 1.253-2.924.836-5.014.417-3.342.418-6.685-.418-12.534.418-6.267.836-13.37zm321.7 276.579l-1.67 3.76-5.432 1.671H830.26l-22.979-.417h-6.685l-18.8.835h-5.432l-3.76-1.671-3.342-3.342-13.37-18.801-3.76-5.014-13.37-17.965-3.76-5.013-11.697-19.219-3.76-5.013-13.37-17.965-2.925-3.343-2.506-1.253-5.014-.418-13.37-.835-5.43.417-3.343 2.507-1.253 5.431-.836 22.98.418 6.684 1.671 23.396.418 6.685.418 10.027v6.685l-.418 6.684-.836 5.014-2.089 2.089-4.595 1.253H659.8l-20.054-1.253-19.219 1.253h-6.684l-19.219-1.253-5.013-.836-2.507-1.671-.836-4.178-.417-5.849-.418-6.267.835-10.863.418-6.684 1.671-22.561v-6.685l-1.253-22.56-.418-6.685-.418-22.143v-6.685l1.254-22.56v-6.686l-1.254-22.56v-6.685l1.254-22.56v-6.686l.835-22.143v-6.684l-.417-22.561v-6.685l-.836-13.787.418-6.267.418-2.507 1.253-5.431 2.507-3.342 5.013-1.254 3.343-.418 6.266-.417 18.801.835 49.718 1.671 28.41-1.67h6.684l27.575 1.67h15.876l7.102.418 6.267 1.254 8.774 2.506 6.267 2.09 6.267 2.506 6.684 2.507 6.267 2.924 5.431 3.343 7.938 5.431 4.596 3.76 4.178 4.178 4.178 5.014 5.85 8.356 3.76 5.43 5.013 7.939 2.924 5.849 2.925 6.267 2.089 6.685 1.253 6.684.418 6.685.836 9.191v6.685l-.418 6.685-.836 7.102-1.253 7.103-1.671 6.684-2.507 6.267-2.925 6.267-3.76 6.267-3.76 5.431-3.76 5.014-3.76 4.596-6.685 6.684-4.596 3.76-8.355 4.596-5.014 2.925-5.431 2.924-5.432 1.254-3.342 1.253 1.671 3.342 15.04 21.308 3.761 5.013 15.04 20.472 4.178 5.014 15.041 20.89 4.178 5.013 12.952 15.04 3.76 4.596 2.089 4.596zM710.772 697.212l27.574-1.671 9.192-1.671 5.43-2.09 5.014-2.924 4.178-5.013 2.925-6.267 1.671-6.685.418-6.685-.418-7.102-.836-7.103-1.67-6.267-2.925-6.266-3.76-5.014-4.596-3.76-5.85-2.507-9.19-2.089-6.685-.835-20.89-.418h-6.685l-21.307 1.253-5.014.418-2.924 1.253-2.507 2.507-.418 4.596.418 9.61.836 6.684.835 7.102.418 7.103-.836 22.978.418 4.596.836 2.507 2.924 1.253 5.014.836 21.725 1.671h6.685zm511.796 128.262l8.356 20.89 1.254 5.85-2.925 4.595-4.596 2.089-5.43.836h-5.85l-9.61-.836-6.266-.418h-18.8l-25.904 1.671-5.431-1.67-2.507-3.343-2.09-4.596-12.95-35.095-2.925-4.177-3.76-.836-5.014-.418-25.067-1.671h-6.685l-31.335-.836-25.067-.417h-6.267l-6.267.417h-19.219l-5.43.836-3.343 2.089-2.507 5.013-9.61 28.41-2.506 6.685-4.596 5.431-6.267 2.507-6.684-.418-24.232-1.253h-6.685l-25.903 1.671-5.431.418-5.014-2.507-3.342-4.596.418-5.43.835-3.343 2.507-6.685 5.849-12.951 2.507-6.267 10.445-23.397 2.506-5.849 10.863-23.396 2.507-6.267 9.609-22.561 2.507-6.267 11.28-23.396 2.507-5.85 15.04-34.259 11.699-25.067 2.924-6.685 9.192-18.8 2.924-6.685 7.938-19.219 2.507-6.267 7.52-17.13 2.09-4.595 4.177-2.507 6.267-1.253 19.219-.836h32.587l19.219.418 7.102 1.254 4.596 3.342 2.09 5.431 5.848 16.294 2.507 6.267 10.445 19.636 2.507 5.85 9.191 20.471 2.507 5.85 7.52 21.307 2.507 5.849 9.191 20.054 2.507 5.85 9.191 20.471 2.507 5.85 8.356 20.889 2.507 5.849 12.951 25.903 10.027 19.636 2.925 5.85 11.28 26.32zm-132.44-92.75l1.253-4.178-1.67-5.43-9.192-28.41-2.09-6.268-8.355-24.65-2.089-5.43-4.178-2.925-5.431-1.254-4.596 1.254-4.178 4.178-11.28 28.41-2.507 6.266-10.863 27.993-1.253 6.266 1.253 5.014 4.596 2.089 5.85.836h26.32l19.636 1.253 5.432-1.671 3.342-3.343zm474.195-24.65l.418 7.103-.418 7.103-.417 10.027-1.254 6.684-2.924 9.61-2.09 6.684-2.506 6.267-2.507 6.685-2.507 7.102-2.506 6.267-4.596 9.192-3.343 5.43-5.849 6.686-4.178 4.595-7.102 6.685-9.191 9.192-5.432 4.595-7.938 6.267-5.431 3.342-8.356 4.596-5.431 2.507-9.192 3.342-6.267 2.09-6.684 1.67-6.685 1.254-25.485 3.76-6.267.418-9.192.835h-6.685l-13.369-.417-10.863-.836h-6.684l-13.37.836-10.444.417-7.103.418-6.267-.418h-29.245l-6.267-.417-17.965-1.672-3.343-1.67-2.089-2.09-.835-4.595-.418-6.685.418-3.343.835-12.533v-5.85l.418-9.609v-6.267l.418-6.684v-6.685l-.418-22.143v-6.685l-.835-22.143.417-6.267.418-9.191.836-6.267.418-7.102v-6.685l-.836-10.863-.418-7.102v-3.76l-.418-7.103 1.672-22.143v-6.685l-.418-22.143v-6.684l-1.254-22.143v-16.294l.418-6.685 1.254-6.267.835-4.596 1.671-2.506 4.596-1.254 7.103-.835 6.266-.836 6.685-.418 36.766.418h6.685l20.054 1.253 3.342.418h7.52l17.548-.835 6.266-.418h6.685l10.445.835 13.37.836 6.684.836 10.863 1.67 6.684 1.254 6.267 1.671 15.04 5.432 6.268 2.924 6.267 3.343 5.849 3.342 13.787 9.61 5.431 4.595 5.014 4.178 9.191 8.773 4.178 4.178 3.76 4.596 2.925 5.431 4.596 9.192 2.506 6.267 2.09 6.684 2.506 6.685 2.089 6.685 1.671 6.685 1.671 9.191 1.254 6.685 1.253 7.102.836 6.685.418 10.027.417 6.685zm-99.852 50.971l5.013-7.938 2.925-6.267 2.507-7.102 1.67-6.267 1.672-9.191.418-5.85.417-9.609v-13.37l-.417-6.684-1.254-9.61-1.67-6.266-.836-2.507-3.343-6.267-6.267-8.773-2.089-2.09-4.178-4.595-4.595-4.596-5.014-3.76-9.191-5.431-5.85-2.507-5.848-1.253-6.685-1.254-10.445-.418-7.103-.417h-10.444l-9.192-.418-6.267.418-9.191 1.253-4.596 1.253-2.089 2.09-1.253 5.013-.418 3.76-.418 6.267.836 12.534.418 6.684.835 9.192.836 6.685.418 6.684v6.685l-.418 9.191v20.055l-.418 7.102-.418 6.685-.835 9.191v5.85l-.418 9.608.418 6.267 1.253 10.027 1.671 4.596 2.507 2.09 5.013.417 38.855-2.507 9.61-.418 6.684-1.253 7.103-2.089 6.684-2.507 6.267-2.924 5.432-3.76 7.52-6.685 4.178-5.014zm383.116 36.766l-.418-4.596-1.67-2.506-2.508-1.254-15.04-1.67-6.267-.419h-6.267l-29.663 1.671h-6.685l-29.663-1.67-22.561 1.67h-6.685l-22.978-.835-4.596-.418-1.671-1.671-1.254-2.925-.418-4.178v-9.191l.418-6.685 1.254-10.445.417-6.266 1.254-2.925 2.089-1.253 5.013-.418 7.103-.418 16.712 1.253h6.684l26.739.836 33.423-2.089 6.685.418 18.8 2.089h8.357l4.178-.836 2.924-2.089 1.671-2.924.836-5.014.835-12.534-.835-9.609v-13.787l-.418-7.102-.835-7.103-.418-4.596-1.254-2.506-2.506-2.09-4.596-.835-12.952-.836-46.793 2.507h-39.69l-13.37.836-13.369-.836-4.595-1.253-1.672-2.09-.835-2.924-.418-4.595-.418-7.103v-6.685l.836-10.027.835-4.595.418-2.507 2.09-2.09 4.177-.835 3.342-.418h6.267l18.801 1.254 21.725.835h6.685l21.307-.835h6.685l39.273.835 6.684-.417h3.343l5.013-.836 2.09-1.671 1.67-2.925.836-5.013.418-6.267-.418-6.267-.418-10.445v-7.102l.836-10.445v-11.28l-.836-5.432-.835-2.924-2.507-2.09-5.85-1.253h-10.444l-14.205 1.254-7.103.417-56.82-.835h-6.684l-25.068 1.671h-6.684l-25.068-1.671h-6.685l-25.485.418-27.157-1.672-5.43.836-3.343.418-2.09 1.671-1.253 3.342-.417 5.85-1.254 21.725v6.267l-.835 12.533v10.027l.417 6.685 1.254 22.143.418 6.685-1.672 22.143v35.512l-.835 22.561.418 6.685 1.253 22.143.418 6.685-.418 22.143v6.684l-1.671 22.143v6.267l-.418 6.267.418 6.685.835 9.61.836 4.595 1.253 2.924 2.925 2.09 5.013.835 14.205.836 35.93-2.09h6.685l21.726 1.672h28.827l6.685-.418 21.725-1.671 6.685-.418 22.143 1.671h6.685l54.73-1.671 2.09-1.671 1.67-2.925.418-4.178 1.672-22.56.417-6.685-1.253-22.979z" fill-rule="evenodd"/></symbol><symbol viewBox="0 0 10 11" id="steps-arrow" xmlns="http://www.w3.org/2000/svg"><defs><path id="bea" d="M1203 3775.5l-8-4.5v9l8-4.5"/></defs><use fill="#fff" xlink:href="#bea" transform="translate(-1194 -3770)"/></symbol><symbol viewBox="0 0 20 16" id="twitter" xmlns="http://www.w3.org/2000/svg"><defs><path id="bfa" d="M631.76 3189.62c-.61.27-1.27.46-1.97.54a3.45 3.45 0 0 0 1.51-1.9c-.66.39-1.4.68-2.18.83a3.43 3.43 0 0 0-5.86 3.14 9.77 9.77 0 0 1-7.1-3.6 3.42 3.42 0 0 0 1.07 4.6 3.42 3.42 0 0 1-1.56-.43v.04a3.44 3.44 0 0 0 2.76 3.37 3.45 3.45 0 0 1-1.55.06 3.44 3.44 0 0 0 3.21 2.39 6.9 6.9 0 0 1-5.09 1.42 9.74 9.74 0 0 0 5.27 1.55c6.33 0 9.79-5.24 9.79-9.79l-.01-.44a7 7 0 0 0 1.71-1.78z"/></defs><use fill="#fff" xlink:href="#bfa" transform="translate(-613 -3187)"/></symbol><symbol viewBox="0 0 815 459" id="vkontakte" xmlns="http://www.w3.org/2000/svg"><defs><path id="bga" d="M688.78 287.85c26.54 25.9 54.55 50.28 78.35 78.8 10.51 12.68 20.47 25.75 28.08 40.46 10.79 20.91 1.02 43.92-17.73 45.17l-116.54-.06c-30.06 2.5-54.04-9.6-74.2-30.15-16.14-16.44-31.08-33.93-46.6-50.92-6.36-6.94-13.02-13.48-20.97-18.64-15.91-10.33-29.72-7.17-38.81 9.43-9.26 16.87-11.36 35.56-12.27 54.37-1.25 27.44-9.55 34.66-37.11 35.91-58.91 2.78-114.83-6.13-166.77-35.85-45.79-26.2-81.3-63.19-112.2-105.06C91.82 229.78 45.73 140.2 4.31 48.08-5 27.33 1.82 16.2 24.72 15.8c38.01-.74 76.03-.68 114.1-.05 15.45.22 25.68 9.09 31.64 23.69 20.57 50.57 45.74 98.7 77.34 143.3 8.4 11.87 16.99 23.74 29.2 32.1 13.52 9.26 23.81 6.19 30.17-8.87 4.03-9.54 5.8-19.82 6.71-30.05 3.01-35.17 3.4-70.29-1.87-105.34-3.25-21.87-15.57-36.04-37.4-40.18-11.14-2.1-9.48-6.25-4.09-12.6C279.9 6.82 288.7 0 306.26 0h131.72c20.73 4.1 25.34 13.4 28.18 34.27l.1 146.3c-.22 8.08 4.04 32.05 18.6 37.4 11.64 3.8 19.31-5.52 26.3-12.9 31.53-33.47 54.04-73.02 74.15-113.98 8.92-18 16.6-36.71 24.03-55.4 5.5-13.87 14.15-20.69 29.77-20.39l126.77.12c3.76 0 7.56.05 11.2.67 21.36 3.64 27.22 12.83 20.62 33.7-10.4 32.72-30.62 59.99-50.4 87.38-21.14 29.26-43.75 57.5-64.71 86.93-19.26 26.87-17.73 40.41 6.2 63.75z"/></defs><use xlink:href="#bga" transform="translate(7 2)"/></symbol></svg>